<?xml version="1.0" encoding="ISO-8859-1" standalone="no"?>
<!-- Created with kokopelli (kokompe.cba.mit.edu) -->
<!DOCTYPE svg PUBLIC "-//W3C//DTD SVG 20010904//EN"
 "http://www.w3.org/TR/2001/REC-SVG-20010904/DTD/svg10.dtd">
<svg
    xmlns   = "http://www.w3.org/2000/svg"
    width   = "7543.8mm"
    height  = "508mm"
    units   = "mm"
>  <path style="stroke:rgb(0,0,0); stroke-width:75.438; fill:none"        d="M0 1800 L0 1800 L0 1800 L0.203917 1800 L0.407835 1800 L0.815705 1800 L1.63144 1800 L3.26293 1800 L6.52585 1800 L13.0517 1800 L835.312 1800 L26730 1800 L26730 1799.71 L26730 1743.75 L26730 0.000432533 L26729.9 0 L10023.7 0 L3341.25 0 L835.312 0 L417.656 0 L104.414 0 L26.1035 0 L13.0517 0 L6.52585 0 L3.26293 0 L1.63144 0 L0.815705 0 L0.407835 0 L0.0509528 0 L0.0127205 0 L0.00155906 0 L0 0.219727 L0 914.063 L0 1378.13 L0 1631.25 L0 1743.75 L0 1773.63"/>
  <path style="stroke:rgb(0,0,0); stroke-width:75.438; fill:none"        d="M0 1799.99 L0 1800"/>
  <path style="stroke:rgb(0,0,0); stroke-width:75.438; fill:none"        d="M0 1799.99 L0 1799.99"/>
  <path style="stroke:rgb(0,0,0); stroke-width:75.438; fill:none"        d="M0 1799.97 L0 1799.99"/>
  <path style="stroke:rgb(0,0,0); stroke-width:75.438; fill:none"        d="M0 1799.95 L0 1799.97"/>
  <path style="stroke:rgb(0,0,0); stroke-width:75.438; fill:none"        d="M0 1799.9 L0 1799.95"/>
  <path style="stroke:rgb(0,0,0); stroke-width:75.438; fill:none"        d="M0 1799.79 L0 1799.9"/>
  <path style="stroke:rgb(0,0,0); stroke-width:75.438; fill:none"        d="M0 1799.59 L0 1799.79"/>
  <path style="stroke:rgb(0,0,0); stroke-width:75.438; fill:none"        d="M0 1799.18 L0 1799.59"/>
  <path style="stroke:rgb(0,0,0); stroke-width:75.438; fill:none"        d="M0 1798.35 L0 1799.18"/>
  <path style="stroke:rgb(0,0,0); stroke-width:75.438; fill:none"        d="M0 1796.7 L0 1798.35"/>
  <path style="stroke:rgb(0,0,0); stroke-width:75.438; fill:none"        d="M0 1793.41 L0 1796.7"/>
  <path style="stroke:rgb(0,0,0); stroke-width:75.438; fill:none"        d="M0 1786.82 L0 1793.41"/>
  <path style="stroke:rgb(0,0,0); stroke-width:75.438; fill:none"        d="M0 1773.63 L0 1786.82"/>
  <path style="stroke:rgb(0,0,0); stroke-width:75.438; fill:none"        d="M90.0008 1710 L90 1710"/>
  <path style="stroke:rgb(0,0,0); stroke-width:75.438; fill:none"        d="M360 1710 L104.414 1710 L90.0367 1710 L90.0008 1710"/>
  <path style="stroke:rgb(0,0,0); stroke-width:75.438; fill:none"        d="M90 1710 L90 1710"/>
  <path style="stroke:rgb(0,0,0); stroke-width:75.438; fill:none"        d="M90 1710 L90 1709.99"/>
  <path style="stroke:rgb(0,0,0); stroke-width:75.438; fill:none"        d="M90 1709.99 L90 1709.96"/>
  <path style="stroke:rgb(0,0,0); stroke-width:75.438; fill:none"        d="M90 1709.96 L90 1709.42"/>
  <path style="stroke:rgb(0,0,0); stroke-width:75.438; fill:none"        d="M90 1709.42 L90 1708.59"/>
  <path style="stroke:rgb(0,0,0); stroke-width:75.438; fill:none"        d="M90 1708.59 L90 990.582 L90 990 L90.1386 990 L359.739 990 L360 990 L360 990.967 L360 1462.5 L360 1662.89"/>
  <path style="stroke:rgb(0,0,0); stroke-width:75.438; fill:none"        d="M360 1710 L360 1710"/>
  <path style="stroke:rgb(0,0,0); stroke-width:75.438; fill:none"        d="M360 1710 L360 1710"/>
  <path style="stroke:rgb(0,0,0); stroke-width:75.438; fill:none"        d="M360 1709.99 L360 1710"/>
  <path style="stroke:rgb(0,0,0); stroke-width:75.438; fill:none"        d="M360 1709.72 L360 1709.99"/>
  <path style="stroke:rgb(0,0,0); stroke-width:75.438; fill:none"        d="M360 1708.92 L360 1709.72"/>
  <path style="stroke:rgb(0,0,0); stroke-width:75.438; fill:none"        d="M360 1689.26 L360 1708.92"/>
  <path style="stroke:rgb(0,0,0); stroke-width:75.438; fill:none"        d="M360 1662.89 L360 1689.26"/>
  <path style="stroke:rgb(0,0,0); stroke-width:75.438; fill:none"        d="M540.832 1710 L540 1710 L540 990 L540.016 990 L540.832 990"/>
  <path style="stroke:rgb(0,0,0); stroke-width:75.438; fill:none"        d="M540.832 990 L809.999 990 L810 990.445 L810 1462.5 L810 1687.5 L810 1710 L540.832 1710"/>
  <path style="stroke:rgb(0,0,0); stroke-width:75.438; fill:none"        d="M990 1652.34 L990 990.308 L990 990.003 L990.009 990 L1259.99 990 L1260 990.047 L1260 1462.5 L1260 1687.5 L1260 1710 L990.022 1710 L990 1710"/>
  <path style="stroke:rgb(0,0,0); stroke-width:75.438; fill:none"        d="M990 1710 L990 1710"/>
  <path style="stroke:rgb(0,0,0); stroke-width:75.438; fill:none"        d="M990 1710 L990 1710"/>
  <path style="stroke:rgb(0,0,0); stroke-width:75.438; fill:none"        d="M990 1710 L990 1709.95"/>
  <path style="stroke:rgb(0,0,0); stroke-width:75.438; fill:none"        d="M990 1709.95 L990 1709.9"/>
  <path style="stroke:rgb(0,0,0); stroke-width:75.438; fill:none"        d="M990 1709.9 L990 1709.69"/>
  <path style="stroke:rgb(0,0,0); stroke-width:75.438; fill:none"        d="M990 1709.69 L990 1707.93"/>
  <path style="stroke:rgb(0,0,0); stroke-width:75.438; fill:none"        d="M990 1707.93 L990 1652.34"/>
  <path style="stroke:rgb(0,0,0); stroke-width:75.438; fill:none"        d="M1440 1710 L1440 1265.63 L1440 990.002 L1440 990 L1440.18 990 L1709.78 990 L1710 990 L1710 1462.5 L1710 1687.5 L1710 1710 L1440 1710 L1440 1710"/>
  <path style="stroke:rgb(0,0,0); stroke-width:75.438; fill:none"        d="M1440 1710 L1440 1710"/>
  <path style="stroke:rgb(0,0,0); stroke-width:75.438; fill:none"        d="M2160 1710 L2159.86 1710 L1890.06 1710 L1890 1710"/>
  <path style="stroke:rgb(0,0,0); stroke-width:75.438; fill:none"        d="M1890 1710 L1890 1709.99"/>
  <path style="stroke:rgb(0,0,0); stroke-width:75.438; fill:none"        d="M1890 1709.99 L1890 1709.94"/>
  <path style="stroke:rgb(0,0,0); stroke-width:75.438; fill:none"        d="M1890 1709.94 L1890 1709.69 L1890 1709.03 L1890 1708.81 L1890 1707.5"/>
  <path style="stroke:rgb(0,0,0); stroke-width:75.438; fill:none"        d="M1890 1707.5 L1890 1706.84 L1890 1692.77"/>
  <path style="stroke:rgb(0,0,0); stroke-width:75.438; fill:none"        d="M1890 1692.77 L1890 1610.16"/>
  <path style="stroke:rgb(0,0,0); stroke-width:75.438; fill:none"        d="M2160 1710 L2160 1710"/>
  <path style="stroke:rgb(0,0,0); stroke-width:75.438; fill:none"        d="M2160 1709.96 L2160 1710"/>
  <path style="stroke:rgb(0,0,0); stroke-width:75.438; fill:none"        d="M2160 1709.2 L2160 1709.58 L2160 1709.83 L2160 1709.96"/>
  <path style="stroke:rgb(0,0,0); stroke-width:75.438; fill:none"        d="M2160 1706.62 L2160 1709.2"/>
  <path style="stroke:rgb(0,0,0); stroke-width:75.438; fill:none"        d="M2160 1689.26 L2160 1706.62"/>
  <path style="stroke:rgb(0,0,0); stroke-width:75.438; fill:none"        d="M2160 1638.28 L2160 1689.26"/>
  <path style="stroke:rgb(0,0,0); stroke-width:75.438; fill:none"        d="M2340 1700.68 L2340 990.04 L2340 990 L2609.54 990 L2610 990 L2610 1462.5 L2610 1688.38 L2610 1710 L2340.04 1710 L2340 1710"/>
  <path style="stroke:rgb(0,0,0); stroke-width:75.438; fill:none"        d="M2340 1710 L2340 1710"/>
  <path style="stroke:rgb(0,0,0); stroke-width:75.438; fill:none"        d="M2340 1710 L2340 1709.96"/>
  <path style="stroke:rgb(0,0,0); stroke-width:75.438; fill:none"        d="M2340 1709.96 L2340 1709.64"/>
  <path style="stroke:rgb(0,0,0); stroke-width:75.438; fill:none"        d="M2340 1709.64 L2340 1707.06"/>
  <path style="stroke:rgb(0,0,0); stroke-width:75.438; fill:none"        d="M2340 1707.06 L2340 1700.68"/>
  <path style="stroke:rgb(0,0,0); stroke-width:75.438; fill:none"        d="M2790 1680.47 L2790 990.637 L2790 990.019 L2790 990 L2790.22 990 L3059.82 990 L3060 990 L3060 1575 L3060 1694.53 L3060 1710 L2790 1710 L2790 1710"/>
  <path style="stroke:rgb(0,0,0); stroke-width:75.438; fill:none"        d="M2790 1710 L2790 1709.98"/>
  <path style="stroke:rgb(0,0,0); stroke-width:75.438; fill:none"        d="M2790 1709.98 L2790 1709.77"/>
  <path style="stroke:rgb(0,0,0); stroke-width:75.438; fill:none"        d="M2790 1709.77 L2790 1709.36 L2790 1709.14 L2790 1708.48"/>
  <path style="stroke:rgb(0,0,0); stroke-width:75.438; fill:none"        d="M2790 1708.48 L2790 1708.37 L2790 1706.84"/>
  <path style="stroke:rgb(0,0,0); stroke-width:75.438; fill:none"        d="M2790 1706.84 L2790 1680.47"/>
  <path style="stroke:rgb(0,0,0); stroke-width:75.438; fill:none"        d="M3240 1710 L3240 1709.86 L3240 990 L3240.1 990 L3509.29 990 L3509.99 990 L3510 990"/>
  <path style="stroke:rgb(0,0,0); stroke-width:75.438; fill:none"        d="M3510 1710 L3509.9 1710 L3240.02 1710 L3240 1710"/>
  <path style="stroke:rgb(0,0,0); stroke-width:75.438; fill:none"        d="M1890 1610.16 L1890 993.164 L1890 992.725 L1890 992.505 L1890 990.967 L1890 990.747 L1890 990.088 L1890 990 L1890.06 990 L2159.25 990 L2159.99 990 L2160 990.013 L2160 990.129 L2160 990.335 L2160 1575 L2160 1638.28"/>
  <path style="stroke:rgb(0,0,0); stroke-width:75.438; fill:none"        d="M3510 990 L3510 1532.81 L3510 1687.5 L3510 1710"/>
  <path style="stroke:rgb(0,0,0); stroke-width:75.438; fill:none"        d="M3690 1710 L3690 1710"/>
  <path style="stroke:rgb(0,0,0); stroke-width:75.438; fill:none"        d="M3690 1710 L3690 990 L3959.58 990 L3960 990 L3960 1504.69 L3960 1687.5 L3960 1710 L3690 1710"/>
  <path style="stroke:rgb(0,0,0); stroke-width:75.438; fill:none"        d="M4140 1710 L4140 1709.64 L4140 1265.63 L4140 990 L4409.86 990 L4410 990.001 L4410 1462.5 L4410 1688.38 L4410 1710 L4140.06 1710 L4140 1710"/>
  <path style="stroke:rgb(0,0,0); stroke-width:75.438; fill:none"        d="M4590 990.001 L4590.04 990 L4859.33 990 L4859.99 990 L4860 990.06 L4860 1462.5 L4860 1687.5 L4860 1710 L4859.99 1710 L4590.04 1710 L4590 1709.99 L4590 990.001"/>
  <path style="stroke:rgb(0,0,0); stroke-width:75.438; fill:none"        d="M5040 1710 L5040 1710"/>
  <path style="stroke:rgb(0,0,0); stroke-width:75.438; fill:none"        d="M5040 990.002 L5040.02 990 L5309.62 990 L5310 990 L5310 1462.5 L5310 1687.5 L5310 1710 L5040 1710"/>
  <path style="stroke:rgb(0,0,0); stroke-width:75.438; fill:none"        d="M5040 1710 L5040 1709.53 L5040 990.002"/>
  <path style="stroke:rgb(0,0,0); stroke-width:75.438; fill:none"        d="M5490 1709.5 L5490 990 L5490.1 990 L5759.9 990 L5760 990.001 L5760 1462.5 L5760 1691.02 L5760 1710 L5490.02 1710 L5490 1710 Z"/>
  <path style="stroke:rgb(0,0,0); stroke-width:75.438; fill:none"        d="M5940 1710 L5940 1710"/>
  <path style="stroke:rgb(0,0,0); stroke-width:75.438; fill:none"        d="M5940 990.001 L5940.03 990 L6210 990 L6210 990.225 L6210 1462.5 L6210 1688.38 L6210 1710 L5940.03 1710 L5940 1710"/>
  <path style="stroke:rgb(0,0,0); stroke-width:75.438; fill:none"        d="M5940 1710 L5940 990.001"/>
  <path style="stroke:rgb(0,0,0); stroke-width:75.438; fill:none"        d="M6390 1710 L6390 1709.8 L6390 990 L6659.99 990 L6660 990.036 L6660 1462.5 L6660 1687.5 L6660 1710 L6390.06 1710 L6390 1710"/>
  <path style="stroke:rgb(0,0,0); stroke-width:75.438; fill:none"        d="M6840 1710 L6840 1709.73 L6840 990 L6840.01 990"/>
  <path style="stroke:rgb(0,0,0); stroke-width:75.438; fill:none"        d="M7110 1710 L7110 1710 L6840.04 1710 L6840 1710"/>
  <path style="stroke:rgb(0,0,0); stroke-width:75.438; fill:none"        d="M6840.01 990 L7109.95 990 L7110 990.004 L7110 1462.5 L7110 1687.5 L7110 1710"/>
  <path style="stroke:rgb(0,0,0); stroke-width:75.438; fill:none"        d="M7560 990 L7560 990.198 L7560 1462.5 L7560 1687.5 L7560 1710 L7559.92 1710 L7290.01 1710 L7290 1709.98 L7290 990 L7559.41 990 L7559.99 990 L7560 990"/>
  <path style="stroke:rgb(0,0,0); stroke-width:75.438; fill:none"        d="M7740 1710 L7740 1709.8 L7740 990 L8009.7 990 L8010 990"/>
  <path style="stroke:rgb(0,0,0); stroke-width:75.438; fill:none"        d="M8010 1710 L7740.02 1710 L7740 1710"/>
  <path style="stroke:rgb(0,0,0); stroke-width:75.438; fill:none"        d="M8009.99 990 L8010 990.102 L8010 1462.5 L8010 1683.98 L8010 1710 L8010 1710"/>
  <path style="stroke:rgb(0,0,0); stroke-width:75.438; fill:none"        d="M8190 1710 L8190 1709.56 L8190 990 L8460 990 L8460 990"/>
  <path style="stroke:rgb(0,0,0); stroke-width:75.438; fill:none"        d="M8460 1710 L8459.99 1710 L8190 1710"/>
  <path style="stroke:rgb(0,0,0); stroke-width:75.438; fill:none"        d="M8460 990 L8460 990.033 L8460 1575 L8460 1698.05 L8460 1710 L8460 1710"/>
  <path style="stroke:rgb(0,0,0); stroke-width:75.438; fill:none"        d="M8640 1710 L8640 1709.69 L8640 990 L8653.31 990"/>
  <path style="stroke:rgb(0,0,0); stroke-width:75.438; fill:none"        d="M8653.31 1710 L8640.06 1710 L8640 1710"/>
  <path style="stroke:rgb(0,0,0); stroke-width:75.438; fill:none"        d="M8910 1710 L8653.31 1710"/>
  <path style="stroke:rgb(0,0,0); stroke-width:75.438; fill:none"        d="M8910 990 L8910 990.143 L8910 1575 L8910 1694.53 L8910 1710 L8910 1710"/>
  <path style="stroke:rgb(0,0,0); stroke-width:75.438; fill:none"        d="M9090 1710 L9090 1709.86 L9090 990 L9090.14 990 L9359.74 990 L9360 990 L9360 990"/>
  <path style="stroke:rgb(0,0,0); stroke-width:75.438; fill:none"        d="M9360 990 L9360 1532.81 L9360 1687.5 L9360 1710 L9359.95 1710 L9090.01 1710 L9090 1710"/>
  <path style="stroke:rgb(0,0,0); stroke-width:75.438; fill:none"        d="M9540 1710 L9540 1709.97 L9540 1265.63 L9540 990 L9540.83 990"/>
  <path style="stroke:rgb(0,0,0); stroke-width:75.438; fill:none"        d="M9540.84 1710 L9540 1710"/>
  <path style="stroke:rgb(0,0,0); stroke-width:75.438; fill:none"        d="M9540.83 990 L9809.21 990 L9810 990 L9810 990.081 L9810 1504.69 L9810 1708.48 L9810 1710 L9809.98 1710 L9540.83 1710"/>
  <path style="stroke:rgb(0,0,0); stroke-width:75.438; fill:none"        d="M10260 1710 L10259.9 1710 L9990.02 1710 L9990 1709.98 L9990 990.001 L9990.05 990 L10259.5 990 L10260 990"/>
  <path style="stroke:rgb(0,0,0); stroke-width:75.438; fill:none"        d="M10260 990 L10260 990.095 L10260 1462.5 L10260 1685.74 L10260 1709.99 L10260 1710"/>
  <path style="stroke:rgb(0,0,0); stroke-width:75.438; fill:none"        d="M10440 1710 L10440 1709.8 L10440 990 L10440.2 990 L10709.8 990 L10710 990 L10710 990"/>
  <path style="stroke:rgb(0,0,0); stroke-width:75.438; fill:none"        d="M10710 990 L10710 990.225 L10710 1462.5 L10710 1691.02 L10710 1710 L10710 1710 L10440 1710"/>
  <path style="stroke:rgb(0,0,0); stroke-width:75.438; fill:none"        d="M10890 1710 L10890 1709.91 L10890 990 L10890.1 990 L10891.7 990"/>
  <path style="stroke:rgb(0,0,0); stroke-width:75.438; fill:none"        d="M10891.7 1710 L10890.1 1710 L10890 1710"/>
  <path style="stroke:rgb(0,0,0); stroke-width:75.438; fill:none"        d="M10891.7 990 L11160 990 L11160 990.036 L11160 1462.5 L11160 1692.77 L11160 1710 L11160 1710 L10891.7 1710"/>
  <path style="stroke:rgb(0,0,0); stroke-width:75.438; fill:none"        d="M11340 1710 L11340 1709.73 L11340 990 L11610 990 L11610 990.054 L11610 1462.5 L11610 1687.5 L11610 1710 L11340 1710"/>
  <path style="stroke:rgb(0,0,0); stroke-width:75.438; fill:none"        d="M11790 1709.77 L11790 990.001 L11790 990 L12059.8 990 L12060 990 L12060 1462.5 L12060 1687.5 L12060 1710 L11790 1710 L11790 1710 Z"/>
  <path style="stroke:rgb(0,0,0); stroke-width:75.438; fill:none"        d="M12240 990.001 L12240 990 L12509.3 990 L12510 990 L12510 990.095 L12510 1462.5 L12510 1687.5 L12510 1710 L12240 1710 L12240 1710 Z"/>
  <path style="stroke:rgb(0,0,0); stroke-width:75.438; fill:none"        d="M12690 1710 L12690 1710"/>
  <path style="stroke:rgb(0,0,0); stroke-width:75.438; fill:none"        d="M12690 1710 L12690 990 L12959.6 990 L12960 990 L12960 1462.5 L12960 1687.5 L12960 1710 L12690 1710 L12690 1710"/>
  <path style="stroke:rgb(0,0,0); stroke-width:75.438; fill:none"        d="M13140 1710 L13140 1709.64 L13140 1265.63 L13140 990 L13409.9 990 L13410 990 L13410 1462.5 L13410 1687.5 L13410 1710 L13140.1 1710 L13140 1710"/>
  <path style="stroke:rgb(0,0,0); stroke-width:75.438; fill:none"        d="M8653.31 990 L8909.46 990 L8910 990 L8910 990"/>
  <path style="stroke:rgb(0,0,0); stroke-width:75.438; fill:none"        d="M90 808.594 L90 90.5825 L90 90 L13410 90 L13410 810 L13409.9 810 L3341.25 810 L835.312 810 L417.656 810 L104.414 810 L90 810 L90 809.998"/>
  <path style="stroke:rgb(0,0,0); stroke-width:75.438; fill:none"        d="M90 809.998 L90 809.995"/>
  <path style="stroke:rgb(0,0,0); stroke-width:75.438; fill:none"        d="M90 809.995 L90 809.989"/>
  <path style="stroke:rgb(0,0,0); stroke-width:75.438; fill:none"        d="M90 809.989 L90 809.96"/>
  <path style="stroke:rgb(0,0,0); stroke-width:75.438; fill:none"        d="M90 809.96 L90 809.418"/>
  <path style="stroke:rgb(0,0,0); stroke-width:75.438; fill:none"        d="M90 809.418 L90 808.594"/>
  <path style="stroke:rgb(0,0,0); stroke-width:75.438; fill:none"        d="M13590 1710 L13590 1709.8 L13590 990 L13590.1 990 L13859.3 990 L13860 990 L13860 990.363 L13860 1462.5 L13860 1688.38 L13860 1710 L13590 1710 L13590 1710"/>
  <path style="stroke:rgb(0,0,0); stroke-width:75.438; fill:none"        d="M14040 1710 L14040 1709.97 L14040 1265.63 L14040 990 L14040 990 L14309.6 990 L14310 990 L14310 1575 L14310 1694.53 L14310 1710 L14040 1710 L14040 1710"/>
  <path style="stroke:rgb(0,0,0); stroke-width:75.438; fill:none"        d="M14490 1710 L14490 1709.73 L14490 990 L14490 990"/>
  <path style="stroke:rgb(0,0,0); stroke-width:75.438; fill:none"        d="M14490 990 L14759.9 990 L14760 990 L14760 1575 L14760 1694.53 L14760 1710 L14490 1710 L14490 1710"/>
  <path style="stroke:rgb(0,0,0); stroke-width:75.438; fill:none"        d="M14940 1710 L14940 1709.8 L14940 990 L14940.2 990 L15209.4 990 L15210 990 L15210 990.013 L15210 1532.81 L15210 1687.5 L15210 1710 L14940 1710"/>
  <path style="stroke:rgb(0,0,0); stroke-width:75.438; fill:none"        d="M15390 1710 L15390 1709.91 L15390 990 L15659.7 990 L15660 990 L15660 1490.63 L15660 1688.38 L15660 1710 L15390.1 1710 L15390 1710"/>
  <path style="stroke:rgb(0,0,0); stroke-width:75.438; fill:none"        d="M15840 1710 L15840 1710"/>
  <path style="stroke:rgb(0,0,0); stroke-width:75.438; fill:none"        d="M15840 1710 L15840 1265.63 L15840 990 L16109.9 990 L16110 990.002 L16110 1462.5 L16110 1687.5 L16110 1710 L15840 1710"/>
  <path style="stroke:rgb(0,0,0); stroke-width:75.438; fill:none"        d="M16290 1710 L16290 1709.77 L16290 990 L16560 990 L16560 990.023 L16560 1462.5 L16560 1687.5 L16560 1710 L16290 1710 L16290 1710"/>
  <path style="stroke:rgb(0,0,0); stroke-width:75.438; fill:none"        d="M16740 1710 L16740 1709.88 L16740 990 L16740.1 990"/>
  <path style="stroke:rgb(0,0,0); stroke-width:75.438; fill:none"        d="M16740.1 1710 L16740 1710"/>
  <path style="stroke:rgb(0,0,0); stroke-width:75.438; fill:none"        d="M16740.1 990 L17010 990 L17010 990.095 L17010 1462.5 L17010 1687.5 L17010 1710 L16740.1 1710"/>
  <path style="stroke:rgb(0,0,0); stroke-width:75.438; fill:none"        d="M17190 1710 L17190 1710"/>
  <path style="stroke:rgb(0,0,0); stroke-width:75.438; fill:none"        d="M17190 1710 L17190 990 L17460 990 L17460 990.013 L17460 1462.5 L17460 1688.38 L17460 1710 L17190 1710 L17190 1710"/>
  <path style="stroke:rgb(0,0,0); stroke-width:75.438; fill:none"        d="M17190 1710 L17190 1710"/>
  <path style="stroke:rgb(0,0,0); stroke-width:75.438; fill:none"        d="M17640 1710 L17640 1709.73 L17640 990 L17909.5 990 L17910 990 L17910 990.033 L17910 1462.5 L17910 1687.5 L17910 1710 L17640.1 1710 L17640 1710"/>
  <path style="stroke:rgb(0,0,0); stroke-width:75.438; fill:none"        d="M18090 1710 L18090 1709.83 L18090 990 L18090.1 990 L18359.7 990 L18360 990 L18360 1462.5 L18360 1687.5 L18360 1710 L18090 1710 L18090 1710"/>
  <path style="stroke:rgb(0,0,0); stroke-width:75.438; fill:none"        d="M18540 1710 L18540 1709.97 L18540 1265.63 L18540 990 L18540.8 990"/>
  <path style="stroke:rgb(0,0,0); stroke-width:75.438; fill:none"        d="M18540.8 1710 L18540 1710"/>
  <path style="stroke:rgb(0,0,0); stroke-width:75.438; fill:none"        d="M18540.8 990 L18809.2 990 L18810 990 L18810 990.023 L18810 1462.5 L18810 1687.5 L18810 1710 L18540.8 1710"/>
  <path style="stroke:rgb(0,0,0); stroke-width:75.438; fill:none"        d="M18990 1710 L18990 1709.73 L18990 990 L18990.1 990"/>
  <path style="stroke:rgb(0,0,0); stroke-width:75.438; fill:none"        d="M18990.1 1710 L18990 1710"/>
  <path style="stroke:rgb(0,0,0); stroke-width:75.438; fill:none"        d="M19003.4 1710 L18990.1 1710"/>
  <path style="stroke:rgb(0,0,0); stroke-width:75.438; fill:none"        d="M19003.4 990 L19259.5 990 L19260 990 L19260 990.115 L19260 1462.5 L19260 1688.38 L19260 1710 L19003.4 1710"/>
  <path style="stroke:rgb(0,0,0); stroke-width:75.438; fill:none"        d="M19440 1709.8 L19440 990.002 L19440 990 L19709.8 990 L19710 990 L19710 990.225 L19710 1462.5 L19710 1692.77 L19710 1710 L19710 1710 L19440 1710 L19440 1710 Z"/>
  <path style="stroke:rgb(0,0,0); stroke-width:75.438; fill:none"        d="M19890 1710 L19890 1709.91 L19890 990 L19890 990"/>
  <path style="stroke:rgb(0,0,0); stroke-width:75.438; fill:none"        d="M19917 1710 L19890.1 1710 L19890 1710"/>
  <path style="stroke:rgb(0,0,0); stroke-width:75.438; fill:none"        d="M19917 990 L20159.3 990 L20160 990 L20160 990.033 L20160 1575 L20160 1701.56 L20160 1710 L19917 1710"/>
  <path style="stroke:rgb(0,0,0); stroke-width:75.438; fill:none"        d="M18990.1 990 L19003.4 990"/>
  <path style="stroke:rgb(0,0,0); stroke-width:75.438; fill:none"        d="M19890 990 L19917 990"/>
  <path style="stroke:rgb(0,0,0); stroke-width:75.438; fill:none"        d="M20340 1710 L20340 1709.73 L20340 990.005"/>
  <path style="stroke:rgb(0,0,0); stroke-width:75.438; fill:none"        d="M20340 990.005 L20340 990 L20609.5 990 L20610 990 L20610 1575 L20610 1694.53 L20610 1710 L20340 1710 L20340 1710"/>
  <path style="stroke:rgb(0,0,0); stroke-width:75.438; fill:none"        d="M20790 1710 L20790 1709.97 L20790 1265.63 L20790 990 L21059.8 990 L21060 990 L21060 1532.81 L21060 1687.5 L21060 1710 L20790 1710 L20790 1710"/>
  <path style="stroke:rgb(0,0,0); stroke-width:75.438; fill:none"        d="M21240 1710 L21240 1709.88 L21240 990.004"/>
  <path style="stroke:rgb(0,0,0); stroke-width:75.438; fill:none"        d="M21240.1 1710 L21240 1710"/>
  <path style="stroke:rgb(0,0,0); stroke-width:75.438; fill:none"        d="M21240.1 990 L21510 990 L21510 990.102 L21510 1575 L21510 1694.53 L21510 1710 L21240.1 1710"/>
  <path style="stroke:rgb(0,0,0); stroke-width:75.438; fill:none"        d="M21690 1710 L21690 1709.8 L21690 990 L21960 990 L21960 990.013 L21960 1462.5 L21960 1692.77 L21960 1710 L21960 1710 L21690 1710"/>
  <path style="stroke:rgb(0,0,0); stroke-width:75.438; fill:none"        d="M22140 1710 L22140 1709.93 L22140 990 L22140 990"/>
  <path style="stroke:rgb(0,0,0); stroke-width:75.438; fill:none"        d="M22140 990 L22409.9 990 L22410 990 L22410 1462.5 L22410 1691.02 L22410 1710 L22410 1710 L22140.1 1710 L22140 1710"/>
  <path style="stroke:rgb(0,0,0); stroke-width:75.438; fill:none"        d="M22590 990.005 L22590 990 L22590.1 990 L22859.3 990 L22860 990 L22860 1462.5 L22860 1691.02 L22860 1710 L22590 1710 L22590 1709.98 L22590 990.005"/>
  <path style="stroke:rgb(0,0,0); stroke-width:75.438; fill:none"        d="M23040 1709.97 L23040 990.003 L23040 990 L23309.6 990 L23310 990 L23310 1462.5 L23310 1688.38 L23310 1710 L23310 1710 L23040 1710 L23040 1710 Z"/>
  <path style="stroke:rgb(0,0,0); stroke-width:75.438; fill:none"        d="M23490.1 1710 L23490 1710 L23490 1265.63 L23490 990.003 L23490 990 L23490.1 990"/>
  <path style="stroke:rgb(0,0,0); stroke-width:75.438; fill:none"        d="M23490.1 990 L23759.9 990 L23760 990 L23760 1462.5 L23760 1687.5 L23760 1710 L23490.1 1710"/>
  <path style="stroke:rgb(0,0,0); stroke-width:75.438; fill:none"        d="M23940 1709.8 L23940 990.003 L23940 990 L23940.2 990 L24209.4 990 L24210 990 L24210 990.013 L24210 1462.5 L24210 1687.5 L24210 1710 L23940 1710 L23940 1710 Z"/>
  <path style="stroke:rgb(0,0,0); stroke-width:75.438; fill:none"        d="M24390 1710 L24390 1709.91 L24390 990 L24390.1 990 L24659.7 990 L24660 990 L24660 1462.5 L24660 1687.5 L24660 1710 L24390 1710 L24390 1710"/>
  <path style="stroke:rgb(0,0,0); stroke-width:75.438; fill:none"        d="M24840 1710 L24840 1709.73 L24840 990 L25110 990 L25110 990.005 L25110 1462.5 L25110 1688.38 L25110 1710 L24840 1710 L24840 1710"/>
  <path style="stroke:rgb(0,0,0); stroke-width:75.438; fill:none"        d="M25290 1710 L25290 1709.75 L25290 990 L25290 990"/>
  <path style="stroke:rgb(0,0,0); stroke-width:75.438; fill:none"        d="M25290 990 L25559.4 990 L25560 990 L25560 990.074 L25560 1462.5 L25560 1687.5 L25560 1710 L25290 1710 L25290 1710"/>
  <path style="stroke:rgb(0,0,0); stroke-width:75.438; fill:none"        d="M25740 1710 L25740 1709.88 L25740 990 L25740.1 990"/>
  <path style="stroke:rgb(0,0,0); stroke-width:75.438; fill:none"        d="M25740.1 1710 L25740 1710"/>
  <path style="stroke:rgb(0,0,0); stroke-width:75.438; fill:none"        d="M25740.1 990 L26009.7 990 L26010 990 L26010 1575 L26010 1694.53 L26010 1710 L25740.1 1710"/>
  <path style="stroke:rgb(0,0,0); stroke-width:75.438; fill:none"        d="M26190 1710 L26190 1709.73 L26190 990 L26460 990 L26460 990.013 L26460 1462.5 L26460 1687.5 L26460 1710 L26190 1710 L26190 1710"/>
  <path style="stroke:rgb(0,0,0); stroke-width:75.438; fill:none"        d="M21240 990.004 L21240 990 L21240.1 990"/>
</svg>