<?xml version="1.0" encoding="ISO-8859-1" standalone="no"?>
<!-- Created with kokopelli (kokompe.cba.mit.edu) -->
<!DOCTYPE svg PUBLIC "-//W3C//DTD SVG 20010904//EN"
 "http://www.w3.org/TR/2001/REC-SVG-20010904/DTD/svg10.dtd">
<svg
    xmlns   = "http://www.w3.org/2000/svg"
    width   = "11201.4mm"
    height  = "533.4mm"
    units   = "mm"
>  <path style="stroke:rgb(0,0,0); stroke-width:112.014; fill:none"        d="M945 1844.93 L945 1844.96 L945.035 1845 L1653.73 1845 L38745 1845 L38745 1844.96 L38745 1409.07 L38745 45.0353 L38745 45.0001 L14647.5 45 L4252.5 45 L1653.73 45 L945.035 45.0001 L945 45.0354 L945 975.969"/>
  <path style="stroke:rgb(0,0,0); stroke-width:112.014; fill:none"        d="M945 1844.86 L945 1844.93"/>
  <path style="stroke:rgb(0,0,0); stroke-width:112.014; fill:none"        d="M945 1844.68 L945 1844.86"/>
  <path style="stroke:rgb(0,0,0); stroke-width:112.014; fill:none"        d="M945 1844.33 L945 1844.68"/>
  <path style="stroke:rgb(0,0,0); stroke-width:112.014; fill:none"        d="M945 1825.8 L945 1841.24 L945 1843.44 L945 1844.33"/>
  <path style="stroke:rgb(0,0,0); stroke-width:112.014; fill:none"        d="M945 975.969 L945 1532.83 L945 1718.47 L945 1825.8"/>
  <path style="stroke:rgb(0,0,0); stroke-width:112.014; fill:none"        d="M1305 1755 L1044.64 1755 L1035.04 1755 L1035 1754.96 L1035 1754.93"/>
  <path style="stroke:rgb(0,0,0); stroke-width:112.014; fill:none"        d="M1035 1754.93 L1035 1752.98"/>
  <path style="stroke:rgb(0,0,0); stroke-width:112.014; fill:none"        d="M1035 1752.98 L1035 1745.08"/>
  <path style="stroke:rgb(0,0,0); stroke-width:112.014; fill:none"        d="M1305 1754.96 L1305 1755"/>
  <path style="stroke:rgb(0,0,0); stroke-width:112.014; fill:none"        d="M1305 1754.89 L1305 1754.96"/>
  <path style="stroke:rgb(0,0,0); stroke-width:112.014; fill:none"        d="M1305 1754.75 L1305 1754.86 L1305 1754.89"/>
  <path style="stroke:rgb(0,0,0); stroke-width:112.014; fill:none"        d="M1305 1753.44 L1305 1754.75"/>
  <path style="stroke:rgb(0,0,0); stroke-width:112.014; fill:none"        d="M1305 1747.98 L1305 1753.44"/>
  <path style="stroke:rgb(0,0,0); stroke-width:112.014; fill:none"        d="M1485 1748.44 L1485 1036.42 L1485 1035.11 L1485 1035 L1755 1035 L1755 1532.83 L1755 1730.09 L1755 1755 L1485 1755 L1485 1754.96"/>
  <path style="stroke:rgb(0,0,0); stroke-width:112.014; fill:none"        d="M1485 1754.96 L1485 1754.93"/>
  <path style="stroke:rgb(0,0,0); stroke-width:112.014; fill:none"        d="M1485 1754.93 L1485 1754.75"/>
  <path style="stroke:rgb(0,0,0); stroke-width:112.014; fill:none"        d="M1485 1754.75 L1485 1748.44"/>
  <path style="stroke:rgb(0,0,0); stroke-width:112.014; fill:none"        d="M1035 1745.08 L1035 1617.91"/>
  <path style="stroke:rgb(0,0,0); stroke-width:112.014; fill:none"        d="M1035 1617.91 L1035 1035.11 L1035 1035.04 L1035.04 1035 L1305 1035 L1305 1035.21 L1305 1036.56 L1305 1517.39 L1305 1730.09 L1305 1747.98"/>
  <path style="stroke:rgb(0,0,0); stroke-width:112.014; fill:none"        d="M1935 1751.85 L1935 1035.43 L1935 1035.04 L1935.04 1035 L2205 1035 L2205 1517.39 L2205 1731.08 L2205 1755 L1935.04 1755 L1935 1754.96 L1935 1754.93"/>
  <path style="stroke:rgb(0,0,0); stroke-width:112.014; fill:none"        d="M1935 1754.93 L1935 1754.89"/>
  <path style="stroke:rgb(0,0,0); stroke-width:112.014; fill:none"        d="M1935 1754.89 L1935 1754.61"/>
  <path style="stroke:rgb(0,0,0); stroke-width:112.014; fill:none"        d="M1935 1754.61 L1935 1751.85"/>
  <path style="stroke:rgb(0,0,0); stroke-width:112.014; fill:none"        d="M2655 1754.93 L2655 1754.96 L2654.96 1755 L2385 1755 L2385 1754.96"/>
  <path style="stroke:rgb(0,0,0); stroke-width:112.014; fill:none"        d="M2385 1754.96 L2385 1754.79"/>
  <path style="stroke:rgb(0,0,0); stroke-width:112.014; fill:none"        d="M2385 1754.79 L2385 1754.11"/>
  <path style="stroke:rgb(0,0,0); stroke-width:112.014; fill:none"        d="M2385 1754.11 L2385 1753.94 L2385 1750.15"/>
  <path style="stroke:rgb(0,0,0); stroke-width:112.014; fill:none"        d="M2385 1750.15 L2385 1745.08"/>
  <path style="stroke:rgb(0,0,0); stroke-width:112.014; fill:none"        d="M2655 1754.86 L2655 1754.93"/>
  <path style="stroke:rgb(0,0,0); stroke-width:112.014; fill:none"        d="M2385 1734.94 L2385 1039.78 L2385 1037.2 L2385 1035.25 L2385 1035 L2654.96 1035 L2655 1035.04 L2655 1540.59 L2655 1732.04 L2655 1754.79 L2655 1754.86"/>
  <path style="stroke:rgb(0,0,0); stroke-width:112.014; fill:none"        d="M3105 1754.96 L3104.96 1755 L2835.04 1755 L2835 1754.96 L2835 1754.86"/>
  <path style="stroke:rgb(0,0,0); stroke-width:112.014; fill:none"        d="M2835 1754.86 L2835 1035.07 L2835 1035.04 L2835.04 1035 L3104.96 1035 L3105 1035.04 L3105 1039.57 L3105 1039.78 L3105 1044.64 L3105 1501.9 L3105 1683.64"/>
  <path style="stroke:rgb(0,0,0); stroke-width:112.014; fill:none"        d="M2385 1745.08 L2385 1734.94"/>
  <path style="stroke:rgb(0,0,0); stroke-width:112.014; fill:none"        d="M3105 1754.93 L3105 1754.96"/>
  <path style="stroke:rgb(0,0,0); stroke-width:112.014; fill:none"        d="M3105 1754.86 L3105 1754.93"/>
  <path style="stroke:rgb(0,0,0); stroke-width:112.014; fill:none"        d="M3105 1754.72 L3105 1754.86"/>
  <path style="stroke:rgb(0,0,0); stroke-width:112.014; fill:none"        d="M3105 1752.73 L3105 1754.72"/>
  <path style="stroke:rgb(0,0,0); stroke-width:112.014; fill:none"        d="M3105 1750.15 L3105 1752.73"/>
  <path style="stroke:rgb(0,0,0); stroke-width:112.014; fill:none"        d="M3105 1745.08 L3105 1750.15"/>
  <path style="stroke:rgb(0,0,0); stroke-width:112.014; fill:none"        d="M3555 1755 L3285 1755 L3285 1754.93"/>
  <path style="stroke:rgb(0,0,0); stroke-width:112.014; fill:none"        d="M3285 1754.93 L3285 1754.79"/>
  <path style="stroke:rgb(0,0,0); stroke-width:112.014; fill:none"        d="M3285 1754.79 L3285 1754.47"/>
  <path style="stroke:rgb(0,0,0); stroke-width:112.014; fill:none"        d="M3285 1754.47 L3285 1754.43 L3285 1754.19 L3285 1035.6 L3285 1035 L3555 1035 L3555 1494.18 L3555 1721.41 L3555 1755"/>
  <path style="stroke:rgb(0,0,0); stroke-width:112.014; fill:none"        d="M4005 1754.96 L4005 1755 L3735 1755 L3735 1754.93"/>
  <path style="stroke:rgb(0,0,0); stroke-width:112.014; fill:none"        d="M3735 1754.93 L3735 1035.07 L3735 1035 L4005 1035 L4005 1501.9 L4005 1732.04 L4005 1754.89 L4005 1754.93"/>
  <path style="stroke:rgb(0,0,0); stroke-width:112.014; fill:none"        d="M4005 1754.93 L4005 1754.96"/>
  <path style="stroke:rgb(0,0,0); stroke-width:112.014; fill:none"        d="M4185 1035 L4455 1035 L4455 1532.83 L4455 1731.08 L4455 1755 L4185 1755 Z"/>
  <path style="stroke:rgb(0,0,0); stroke-width:112.014; fill:none"        d="M3105 1724.31 L3105 1745.08"/>
  <path style="stroke:rgb(0,0,0); stroke-width:112.014; fill:none"        d="M3105 1683.64 L3105 1724.31"/>
  <path style="stroke:rgb(0,0,0); stroke-width:112.014; fill:none"        d="M4635 1754.93 L4635 1308.54 L4635 1035.07 L4635 1035 L4904.96 1035 L4905 1035.04 L4905 1517.39 L4905 1730.09 L4905 1754.96 L4904.96 1755 L4635 1755 L4635 1754.93"/>
  <path style="stroke:rgb(0,0,0); stroke-width:112.014; fill:none"        d="M5355 1754.96 L5354.96 1755 L5085 1755 L5085 1754.96 L5085 1035.04 L5085 1035 L5354.96 1035 L5355 1035.04 L5355 1532.83 L5355 1730.09 L5355 1754.96"/>
  <path style="stroke:rgb(0,0,0); stroke-width:112.014; fill:none"        d="M5535 1754.96 L5535 1035.04 L5535 1035 L5804.96 1035 L5805 1035.04 L5805 1517.39 L5805 1730.09 L5805 1754.96 L5804.96 1755 L5535 1755 L5535 1754.96"/>
  <path style="stroke:rgb(0,0,0); stroke-width:112.014; fill:none"        d="M6255 1754.93 L6255 1754.96 L6254.96 1755 L5985 1755 L5985 1754.96 L5985 1035.04 L5985 1035 L6254.96 1035 L6255 1035.04 L6255 1532.83 L6255 1732.04 L6255 1754.93"/>
  <path style="stroke:rgb(0,0,0); stroke-width:112.014; fill:none"        d="M6437.52 1755 L6435 1755"/>
  <path style="stroke:rgb(0,0,0); stroke-width:112.014; fill:none"        d="M6435 1755 L6435 1035 L6704.96 1035 L6705 1035.04 L6705 1035.53 L6705 1532.83 L6705 1730.09 L6705 1754.93 L6705 1754.96 L6704.96 1755 L6437.52 1755"/>
  <path style="stroke:rgb(0,0,0); stroke-width:112.014; fill:none"        d="M7155 1745.54 L7155 1754.96 L7154.96 1755 L6885 1755 L6885 1754.96"/>
  <path style="stroke:rgb(0,0,0); stroke-width:112.014; fill:none"        d="M6885 1754.96 L6885 1754.86"/>
  <path style="stroke:rgb(0,0,0); stroke-width:112.014; fill:none"        d="M6885 1754.86 L6885 1035.14 L6885 1035.04 L6885 1035 L7154.96 1035 L7155 1035.04 L7155 1055.27"/>
  <path style="stroke:rgb(0,0,0); stroke-width:112.014; fill:none"        d="M7335 1035 L7604.96 1035 L7605 1035.04 L7605 1501.9 L7605 1730.09 L7605 1754.93 L7605 1754.96 L7604.96 1755 L7335 1755 Z"/>
  <path style="stroke:rgb(0,0,0); stroke-width:112.014; fill:none"        d="M7790.21 1755 L7785 1755 L7785 1754.79 L7785 1035.04 L7785 1035 L8055 1035 L8055 1517.39 L8055 1731.08 L8055 1755"/>
  <path style="stroke:rgb(0,0,0); stroke-width:112.014; fill:none"        d="M8055 1755 L7790.21 1755"/>
  <path style="stroke:rgb(0,0,0); stroke-width:112.014; fill:none"        d="M7155 1055.27 L7155 1548.32 L7155 1730.09 L7155 1745.54"/>
  <path style="stroke:rgb(0,0,0); stroke-width:112.014; fill:none"        d="M8505 1754.93 L8505 1754.96 L8504.96 1755 L8235 1755 L8235 1035 L8504.96 1035 L8505 1035.04 L8505 1501.9 L8505 1731.08 L8505 1754.93"/>
  <path style="stroke:rgb(0,0,0); stroke-width:112.014; fill:none"        d="M8685 1035 L8954.97 1035 L8955 1035.04 L8955 1532.83 L8955 1731.08 L8955 1754.96 L8954.97 1755 L8685 1755 Z"/>
  <path style="stroke:rgb(0,0,0); stroke-width:112.014; fill:none"        d="M9405 1754.93 L9405 1754.96 L9404.96 1755 L9135 1755 L9135 1754.96 L9135 1035.04 L9135 1035 L9404.96 1035 L9405 1035.04 L9405 1035.07 L9405 1501.9 L9405 1731.08 L9405 1754.93"/>
  <path style="stroke:rgb(0,0,0); stroke-width:112.014; fill:none"        d="M9585 1754.96 L9585 1035.04 L9585 1035 L9854.97 1035 L9855 1035.04 L9855 1532.83 L9855 1731.08 L9855 1754.96 L9854.97 1755 L9585 1755 Z"/>
  <path style="stroke:rgb(0,0,0); stroke-width:112.014; fill:none"        d="M10035 1754.96 L10035 1035.04 L10035 1035 L10305 1035 L10305 1035.04 L10305 1532.83 L10305 1730.09 L10305 1754.96 L10305 1755 L10035 1755 Z"/>
  <path style="stroke:rgb(0,0,0); stroke-width:112.014; fill:none"        d="M10505.7 1755 L10485 1755 L10485 1035 L10755 1035 L10755 1035.04 L10755 1517.39 L10755 1733.95 L10755 1754.96 L10755 1755 L10505.7 1755"/>
  <path style="stroke:rgb(0,0,0); stroke-width:112.014; fill:none"        d="M11205 1754.93 L11205 1754.96 L11205 1755 L10935 1755 L10935 1754.96 L10935 1035.04 L10935 1035 L11205 1035 L11205 1035.04 L11205 1038.97 L11205 1039.07 L11205 1501.9 L11205 1730.09 L11205 1750.64 L11205 1750.89"/>
  <path style="stroke:rgb(0,0,0); stroke-width:112.014; fill:none"        d="M11205 1750.89 L11205 1754.93"/>
  <path style="stroke:rgb(0,0,0); stroke-width:112.014; fill:none"        d="M11655 1752.73 L11655 1754.93 L11655 1754.96 L11655 1755 L11385 1755 L11385 1754.96 L11385 1754.93"/>
  <path style="stroke:rgb(0,0,0); stroke-width:112.014; fill:none"        d="M11385 1754.93 L11385 1035.04 L11385 1035 L11655 1035 L11655 1035.04 L11655 1037.23 L11655 1037.27 L11655 1047.54"/>
  <path style="stroke:rgb(0,0,0); stroke-width:112.014; fill:none"        d="M11655 1047.54 L11655 1501.9 L11655 1730.09 L11655 1752.73"/>
  <path style="stroke:rgb(0,0,0); stroke-width:112.014; fill:none"        d="M11835 1035 L12105 1035 L12105 1035.04 L12105 1532.83 L12105 1730.09 L12105 1754.96 L12105 1755 L11835 1755 Z"/>
  <path style="stroke:rgb(0,0,0); stroke-width:112.014; fill:none"        d="M12555 1755 L12285 1755 L12285 1752.73"/>
  <path style="stroke:rgb(0,0,0); stroke-width:112.014; fill:none"        d="M12285 1752.73 L12285 1035 L12555 1035 L12555 1532.83 L12555 1730.09 L12555 1755"/>
  <path style="stroke:rgb(0,0,0); stroke-width:112.014; fill:none"        d="M13005 1754.93 L13005 1755 L12735 1755 L12735 1754.96 L12735 1035.04 L12735 1035 L13005 1035 L13005 1494.18 L13005 1722.37 L13005 1754.93"/>
  <path style="stroke:rgb(0,0,0); stroke-width:112.014; fill:none"        d="M13206 1755 L13185 1755 L13185 1035 L13455 1035 L13455 1532.83 L13455 1731.08 L13455 1755 L13206 1755"/>
  <path style="stroke:rgb(0,0,0); stroke-width:112.014; fill:none"        d="M13635 1035 L13905 1035 L13905 1517.39 L13905 1731.08 L13905 1755 L13635 1755 Z"/>
  <path style="stroke:rgb(0,0,0); stroke-width:112.014; fill:none"        d="M14085 1754.96 L14085 1035.04 L14085 1035 L14355 1035 L14355 1035.04 L14355 1532.83 L14355 1731.08 L14355 1754.96 L14355 1755 L14085 1755 Z"/>
  <path style="stroke:rgb(0,0,0); stroke-width:112.014; fill:none"        d="M14535 1754.96 L14535 1035.04 L14535 1035 L14805 1035 L14805 1532.83 L14805 1731.08 L14805 1755 L14535 1755 Z"/>
  <path style="stroke:rgb(0,0,0); stroke-width:112.014; fill:none"        d="M14985 1035 L15255 1035 L15255 1035.04 L15255 1494.18 L15255 1723.36 L15255 1754.96 L15255 1755 L14985 1755 Z"/>
  <path style="stroke:rgb(0,0,0); stroke-width:112.014; fill:none"        d="M15435 1754.96 L15435 1035.04 L15435 1035 L15705 1035 L15705 1532.83 L15705 1730.09 L15705 1755 L15435 1755 Z"/>
  <path style="stroke:rgb(0,0,0); stroke-width:112.014; fill:none"        d="M15885 1754.96 L15885 1035.04 L15885 1035 L16155 1035 L16155 1035.04 L16155 1532.83 L16155 1732.04 L16155 1754.96 L16155 1755 L15885 1755 Z"/>
  <path style="stroke:rgb(0,0,0); stroke-width:112.014; fill:none"        d="M16335 1754.96 L16335 1035.04 L16335 1035 L16605 1035 L16605 1517.39 L16605 1730.09 L16605 1755 L16335 1755 Z"/>
  <path style="stroke:rgb(0,0,0); stroke-width:112.014; fill:none"        d="M16785 1035 L17055 1035 L17055 1532.83 L17055 1730.09 L17055 1755 L16785 1755 Z"/>
  <path style="stroke:rgb(0,0,0); stroke-width:112.014; fill:none"        d="M17235 1754.96 L17235 1035.04 L17235 1035 L17505 1035 L17505 1494.18 L17505 1726.23 L17505 1755 L17235 1755 Z"/>
  <path style="stroke:rgb(0,0,0); stroke-width:112.014; fill:none"        d="M17685 1754.96 L17685 1035.04 L17685 1035 L17955 1035 L17955 1035.04 L17955 1532.83 L17955 1732.04 L17955 1754.96 L17955 1755 L17685 1755 Z"/>
  <path style="stroke:rgb(0,0,0); stroke-width:112.014; fill:none"        d="M18135 1754.96 L18135 1035.04 L18135 1035 L18405 1035 L18405 1532.83 L18405 1730.09 L18405 1755 L18135 1755 Z"/>
  <path style="stroke:rgb(0,0,0); stroke-width:112.014; fill:none"        d="M18626.8 1755 L18585 1755 L18585 1035 L18855 1035 L18855 1494.18 L18855 1722.37 L18855 1755 L18626.8 1755"/>
  <path style="stroke:rgb(0,0,0); stroke-width:112.014; fill:none"        d="M19035 1754.96 L19035 1035.04 L19035 1035 L19305 1035 L19305 1532.83 L19305 1731.08 L19305 1755 L19035 1755 Z"/>
  <path style="stroke:rgb(0,0,0); stroke-width:112.014; fill:none"        d="M19485 1754.96 L19485 1035.04 L19485 1035 L19755 1035 L19755 1517.39 L19755 1731.08 L19755 1755 L19485 1755 Z"/>
  <path style="stroke:rgb(0,0,0); stroke-width:112.014; fill:none"        d="M19935 1754.96 L19935 1035.04 L19935 1035 L20205 1035 L20205 1532.83 L20205 1731.08 L20205 1755 L19935 1755 Z"/>
  <path style="stroke:rgb(0,0,0); stroke-width:112.014; fill:none"        d="M20385 1035 L20655 1035 L20655 1532.83 L20655 1731.08 L20655 1755 L20385 1755 Z"/>
  <path style="stroke:rgb(0,0,0); stroke-width:112.014; fill:none"        d="M20835 1035 L21105 1035 L21105 1035.04 L21105 1494.18 L21105 1722.37 L21105 1754.96 L21105 1755 L20835 1755 Z"/>
  <path style="stroke:rgb(0,0,0); stroke-width:112.014; fill:none"        d="M21285 1754.96 L21285 1035.04 L21285 1035 L21555 1035 L21555 1532.83 L21555 1730.09 L21555 1755 L21285 1755 Z"/>
  <path style="stroke:rgb(0,0,0); stroke-width:112.014; fill:none"        d="M21735 1754.96 L21735 1035.04 L21735 1035 L22005 1035 L22005 1035.04 L22005 1532.83 L22005 1732.04 L22005 1754.96 L22005 1755 L21735 1755 Z"/>
  <path style="stroke:rgb(0,0,0); stroke-width:112.014; fill:none"        d="M22185 1754.96 L22185 1035.04 L22185 1035 L22455 1035 L22455 1517.39 L22455 1730.09 L22455 1755 L22185 1755 Z"/>
  <path style="stroke:rgb(0,0,0); stroke-width:112.014; fill:none"        d="M22635 1035 L22905 1035 L22905 1035.04 L22905 1532.83 L22905 1732.04 L22905 1754.96 L22905 1755 L22635 1755 Z"/>
  <path style="stroke:rgb(0,0,0); stroke-width:112.014; fill:none"        d="M23085 1754.96 L23085 1035.04 L23085 1035 L23355 1035 L23355 1494.18 L23355 1726.23 L23355 1755 L23085 1755 Z"/>
  <path style="stroke:rgb(0,0,0); stroke-width:112.014; fill:none"        d="M23535 1754.96 L23535 1035.04 L23535 1035 L23805 1035 L23805 1035.04 L23805 1532.83 L23805 1730.09 L23805 1754.96 L23805 1755 L23535 1755 Z"/>
  <path style="stroke:rgb(0,0,0); stroke-width:112.014; fill:none"        d="M23985 1754.96 L23985 1035.04 L23985 1035 L24255 1035 L24255 1532.83 L24255 1731.08 L24255 1755 L23985 1755 Z"/>
  <path style="stroke:rgb(0,0,0); stroke-width:112.014; fill:none"        d="M24435 1035 L24705 1035 L24705 1494.18 L24705 1722.37 L24705 1755 L24435 1755 Z"/>
  <path style="stroke:rgb(0,0,0); stroke-width:112.014; fill:none"        d="M24890.2 1755 L24885 1755 L24885 1035 L25155 1035 L25155 1532.83 L25155 1731.08 L25155 1754.93"/>
  <path style="stroke:rgb(0,0,0); stroke-width:112.014; fill:none"        d="M25155 1754.93 L25155 1755 L24890.2 1755"/>
  <path style="stroke:rgb(0,0,0); stroke-width:112.014; fill:none"        d="M25335 1754.96 L25335 1035.04 L25335 1035 L25605 1035 L25605 1501.9 L25605 1729.13 L25605 1755 L25335 1755 Z"/>
  <path style="stroke:rgb(0,0,0); stroke-width:112.014; fill:none"        d="M25785 1754.96 L25785 1035.04 L25785 1035 L26055 1035 L26055 1035.04 L26055 1548.32 L26055 1731.08 L26055 1754.96 L26055 1755 L25785 1755 Z"/>
  <path style="stroke:rgb(0,0,0); stroke-width:112.014; fill:none"        d="M26235 1754.96 L26235 1035.04 L26235 1035 L26505 1035 L26505 1035.04 L26505 1548.32 L26505 1733.95 L26505 1754.96 L26505 1755 L26235 1755 Z"/>
  <path style="stroke:rgb(0,0,0); stroke-width:112.014; fill:none"        d="M26955 1754.93 L26955 1755 L26685 1755 L26685 1035 L26955 1035 L26955 1494.18 L26955 1722.37 L26955 1754.93"/>
  <path style="stroke:rgb(0,0,0); stroke-width:112.014; fill:none"        d="M27135 1754.96 L27135 1035.04 L27135 1035 L27405 1035 L27405 1532.83 L27405 1730.09 L27405 1755 L27135 1755 Z"/>
  <path style="stroke:rgb(0,0,0); stroke-width:112.014; fill:none"        d="M27585 1035 L27855 1035 L27855 1035.04 L27855 1548.32 L27855 1730.09 L27855 1754.96 L27855 1755 L27585 1755 Z"/>
  <path style="stroke:rgb(0,0,0); stroke-width:112.014; fill:none"        d="M28035 1754.96 L28035 1035.04 L28035 1035 L28305 1035 L28305 1540.59 L28305 1730.09 L28305 1755 L28035 1755 Z"/>
  <path style="stroke:rgb(0,0,0); stroke-width:112.014; fill:none"        d="M28485 1754.93 L28485 1754.89 L28485 1316.27 L28485 1035.04 L28485 1035 L28755 1035 L28755 1035.04 L28755 1548.32 L28755 1730.09 L28755 1754.96 L28755 1755 L28485 1755 Z"/>
  <path style="stroke:rgb(0,0,0); stroke-width:112.014; fill:none"        d="M28935 1754.96 L28935 1035.04 L28935 1035 L29205 1035 L29205 1494.18 L29205 1726.23 L29205 1755 L28935 1755 Z"/>
  <path style="stroke:rgb(0,0,0); stroke-width:112.014; fill:none"        d="M29385 1754.96 L29385 1035.04 L29385 1035 L29655 1035 L29655 1035.04 L29655 1548.32 L29655 1731.08 L29655 1754.96 L29655 1755 L29385 1755 Z"/>
  <path style="stroke:rgb(0,0,0); stroke-width:112.014; fill:none"        d="M29835 1035 L30105 1035 L30105 1035.04 L30105 1548.32 L30105 1731.08 L30105 1754.96 L30105 1755 L29835 1755 Z"/>
  <path style="stroke:rgb(0,0,0); stroke-width:112.014; fill:none"        d="M30285 1754.96 L30285 1754.93 L30285 1035.04 L30285 1035 L30555 1035 L30555 1494.18 L30555 1723.36 L30555 1755 L30285 1755 Z"/>
  <path style="stroke:rgb(0,0,0); stroke-width:112.014; fill:none"        d="M30735 1754.96 L30735 1035.04 L30735 1035 L31005 1035 L31005 1035.04 L31005 1517.39 L31005 1731.08 L31005 1754.96 L31005 1755 L30735 1755 Z"/>
  <path style="stroke:rgb(0,0,0); stroke-width:112.014; fill:none"        d="M31185 1754.96 L31185 1035.04 L31185 1035 L31455 1035 L31455 1035.04 L31455 1501.9 L31455 1729.13 L31455 1754.96 L31455 1755 L31185 1755 Z"/>
  <path style="stroke:rgb(0,0,0); stroke-width:112.014; fill:none"        d="M31635 1754.96 L31635 1035.04 L31635 1035 L31905 1035 L31905 1532.83 L31905 1730.09 L31905 1755 L31635 1755 L31635 1754.96"/>
  <path style="stroke:rgb(0,0,0); stroke-width:112.014; fill:none"        d="M32085 1754.96 L32085 1035.04 L32085 1035 L32355 1035 L32355 1035.04 L32355 1548.32 L32355 1733.95 L32355 1754.96 L32355 1755 L32085 1755 Z"/>
  <path style="stroke:rgb(0,0,0); stroke-width:112.014; fill:none"        d="M32535 1035 L32805 1035 L32805 1035.04 L32805 1035.07 L32805 1494.18 L32805 1724.31 L32805 1754.96 L32805 1755 L32535 1755 Z"/>
  <path style="stroke:rgb(0,0,0); stroke-width:112.014; fill:none"        d="M33255 1754.96 L33255 1755 L32985 1755 L32985 1754.96 L32985 1035.04 L32985 1035 L33255 1035 L33255 1035.04 L33255 1532.83 L33255 1733.95 L33255 1754.96"/>
  <path style="stroke:rgb(0,0,0); stroke-width:112.014; fill:none"        d="M33435 1754.96 L33435 1035.04 L33435 1035 L33705 1035 L33705 1035.04 L33705 1548.32 L33705 1730.09 L33705 1754.96 L33705 1755 L33435 1755 Z"/>
  <path style="stroke:rgb(0,0,0); stroke-width:112.014; fill:none"        d="M33885 1754.96 L33885 1035.04 L33885 1035 L34155 1035 L34155 1035.04 L34155 1517.39 L34155 1733.95 L34155 1754.96 L34155 1755 L33885 1755 Z"/>
  <path style="stroke:rgb(0,0,0); stroke-width:112.014; fill:none"        d="M34335 1754.96 L34335 1035.04 L34335 1035 L34605 1035 L34605 1035.04 L34605 1517.39 L34605 1730.09 L34605 1754.96 L34605 1755 L34335 1755 Z"/>
  <path style="stroke:rgb(0,0,0); stroke-width:112.014; fill:none"        d="M34785 1754.96 L34785 1035.04 L34785 1035 L35055 1035 L35055 1494.18 L35055 1726.23 L35055 1755 L34785 1755 Z"/>
  <path style="stroke:rgb(0,0,0); stroke-width:112.014; fill:none"        d="M35235 1754.96 L35235 1035.04 L35235 1035 L35505 1035 L35505 1532.83 L35505 1731.08 L35505 1755 L35235 1755 Z"/>
  <path style="stroke:rgb(0,0,0); stroke-width:112.014; fill:none"        d="M35685 1754.96 L35685 1035.04 L35685 1035 L35955 1035 L35955 1035.04 L35955 1517.39 L35955 1731.08 L35955 1754.96 L35955 1755 L35685 1755 Z"/>
  <path style="stroke:rgb(0,0,0); stroke-width:112.014; fill:none"        d="M36135 1754.96 L36135 1035.04 L36135 1035 L36405 1035 L36405 1494.18 L36405 1721.41 L36405 1755 L36135 1755 Z"/>
  <path style="stroke:rgb(0,0,0); stroke-width:112.014; fill:none"        d="M36855 1754.96 L36855 1755 L36585 1755 L36585 1754.96 L36585 1035.04 L36585 1035 L36855 1035 L36855 1035.04 L36855 1532.83 L36855 1731.08 L36855 1754.96"/>
  <path style="stroke:rgb(0,0,0); stroke-width:112.014; fill:none"        d="M37035 1754.93 L37035 1754.89 L37035 1316.27 L37035 1035.04 L37035 1035 L37305 1035 L37305 1035.04 L37305 1548.32 L37305 1732.04 L37305 1754.96 L37305 1755 L37035 1755 Z"/>
  <path style="stroke:rgb(0,0,0); stroke-width:112.014; fill:none"        d="M37485 1754.96 L37485 1035.04 L37485 1035 L37755 1035 L37755 1035.04 L37755 1517.39 L37755 1730.09 L37755 1754.96 L37755 1755 L37485 1755 Z"/>
  <path style="stroke:rgb(0,0,0); stroke-width:112.014; fill:none"        d="M37935 1035 L38205 1035 L38205 1035.04 L38205 1548.32 L38205 1733.95 L38205 1754.96 L38205 1755 L37935 1755 Z"/>
  <path style="stroke:rgb(0,0,0); stroke-width:112.014; fill:none"        d="M38385 1754.96 L38385 1035.04 L38385 1035 L38655 1035 L38655 1494.18 L38655 1722.37 L38655 1755 L38385 1755 Z"/>
  <path style="stroke:rgb(0,0,0); stroke-width:112.014; fill:none"        d="M19936.3 135 L20204.7 135 L20205 135 L20205 135.035 L20205 855 L20204.7 855 L19935 855 L19935 855 L19935 854.965 L19935 135.035 L19935 135.004 L19935 135 L19936.3 135"/>
</svg>