  0
SECTION
  2
BLOCKS
  0
ENDSEC
  0
SECTION
  2
ENTITIES
  0
LINE
  8
0
 10
-68.5
 11
-68.5
 20
-73
 21
-59
  0
LINE
  8
0
 10
-68.5
 11
-48.5
 20
-59
 21
-59
  0
LINE
  8
0
 10
-48.5
 11
-48.5
 20
-59
 21
3
  0
LINE
  8
0
 10
-48.5
 11
-51.5
 20
3
 21
3
  0
LINE
  8
0
 10
-51.5
 11
-51.5
 20
3
 21
1.42
  0
LINE
  8
0
 10
-51.5
 11
-51.732
 20
1.42
 21
1.768
  0
LINE
  8
0
 10
-51.732
 11
-52.543
 20
1.768
 21
2.31
  0
LINE
  8
0
 10
-52.543
 11
-53.5
 20
2.31
 21
2.5
  0
LINE
  8
0
 10
-53.5
 11
-54.457
 20
2.5
 21
2.31
  0
LINE
  8
0
 10
-54.457
 11
-55.268
 20
2.31
 21
1.768
  0
LINE
  8
0
 10
-55.268
 11
-55.81
 20
1.768
 21
0.957
  0
LINE
  8
0
 10
-55.81
 11
-56
 20
0.957
 21
0
  0
LINE
  8
0
 10
-56
 11
-55.81
 20
0
 21
-0.957
  0
LINE
  8
0
 10
-55.81
 11
-55.268
 20
-0.957
 21
-1.768
  0
LINE
  8
0
 10
-55.268
 11
-54.457
 20
-1.768
 21
-2.31
  0
LINE
  8
0
 10
-54.457
 11
-53.5
 20
-2.31
 21
-2.5
  0
LINE
  8
0
 10
-53.5
 11
-52.543
 20
-2.5
 21
-2.31
  0
LINE
  8
0
 10
-52.543
 11
-51.732
 20
-2.31
 21
-1.768
  0
LINE
  8
0
 10
-51.732
 11
-51.5
 20
-1.768
 21
-1.42
  0
LINE
  8
0
 10
-51.5
 11
-51.5
 20
-1.42
 21
-19.697
  0
LINE
  8
0
 10
-51.5
 11
-54.68
 20
-19.697
 21
-19.021
  0
LINE
  8
0
 10
-54.68
 11
-58.5
 20
-19.021
 21
-17.321
  0
LINE
  8
0
 10
-58.5
 11
-61.883
 20
-17.321
 21
-14.863
  0
LINE
  8
0
 10
-61.883
 11
-64.68
 20
-14.863
 21
-11.756
  0
LINE
  8
0
 10
-64.68
 11
-66.771
 20
-11.756
 21
-8.135
  0
LINE
  8
0
 10
-66.771
 11
-68.063
 20
-8.135
 21
-4.158
  0
LINE
  8
0
 10
-68.063
 11
-68.5
 20
-4.158
 21
0
  0
LINE
  8
0
 10
-68.5
 11
-68.063
 20
0
 21
4.158
  0
LINE
  8
0
 10
-68.063
 11
-66.771
 20
4.158
 21
8.135
  0
LINE
  8
0
 10
-66.771
 11
-64.68
 20
8.135
 21
11.756
  0
LINE
  8
0
 10
-64.68
 11
-61.883
 20
11.756
 21
14.863
  0
LINE
  8
0
 10
-61.883
 11
-58.5
 20
14.863
 21
17.321
  0
LINE
  8
0
 10
-58.5
 11
-54.68
 20
17.321
 21
19.021
  0
LINE
  8
0
 10
-54.68
 11
-50.591
 20
19.021
 21
19.89
  0
LINE
  8
0
 10
-50.591
 11
-48.5
 20
19.89
 21
19.89
  0
LINE
  8
0
 10
-48.5
 11
-48.5
 20
19.89
 21
59
  0
LINE
  8
0
 10
-48.5
 11
-68.5
 20
59
 21
59
  0
LINE
  8
0
 10
-68.5
 11
-68.5
 20
59
 21
73
  0
LINE
  8
0
 10
-68.5
 11
68.5
 20
73
 21
73
  0
LINE
  8
0
 10
68.5
 11
68.5
 20
73
 21
59
  0
LINE
  8
0
 10
68.5
 11
48.5
 20
59
 21
59
  0
LINE
  8
0
 10
48.5
 11
48.5
 20
59
 21
19.89
  0
LINE
  8
0
 10
48.5
 11
50.591
 20
19.89
 21
19.89
  0
LINE
  8
0
 10
50.591
 11
54.68
 20
19.89
 21
19.021
  0
LINE
  8
0
 10
54.68
 11
58.5
 20
19.021
 21
17.321
  0
LINE
  8
0
 10
58.5
 11
61.883
 20
17.321
 21
14.863
  0
LINE
  8
0
 10
61.883
 11
64.68
 20
14.863
 21
11.756
  0
LINE
  8
0
 10
64.68
 11
66.771
 20
11.756
 21
8.135
  0
LINE
  8
0
 10
66.771
 11
68.063
 20
8.135
 21
4.158
  0
LINE
  8
0
 10
68.063
 11
68.5
 20
4.158
 21
0
  0
LINE
  8
0
 10
68.5
 11
68.063
 20
0
 21
-4.158
  0
LINE
  8
0
 10
68.063
 11
66.771
 20
-4.158
 21
-8.135
  0
LINE
  8
0
 10
66.771
 11
64.68
 20
-8.135
 21
-11.756
  0
LINE
  8
0
 10
64.68
 11
61.883
 20
-11.756
 21
-14.863
  0
LINE
  8
0
 10
61.883
 11
58.5
 20
-14.863
 21
-17.321
  0
LINE
  8
0
 10
58.5
 11
54.68
 20
-17.321
 21
-19.021
  0
LINE
  8
0
 10
54.68
 11
51.5
 20
-19.021
 21
-19.697
  0
LINE
  8
0
 10
51.5
 11
51.5
 20
-19.697
 21
-1.42
  0
LINE
  8
0
 10
51.5
 11
51.732
 20
-1.42
 21
-1.768
  0
LINE
  8
0
 10
51.732
 11
52.543
 20
-1.768
 21
-2.31
  0
LINE
  8
0
 10
52.543
 11
53.5
 20
-2.31
 21
-2.5
  0
LINE
  8
0
 10
53.5
 11
54.457
 20
-2.5
 21
-2.31
  0
LINE
  8
0
 10
54.457
 11
55.268
 20
-2.31
 21
-1.768
  0
LINE
  8
0
 10
55.268
 11
55.81
 20
-1.768
 21
-0.957
  0
LINE
  8
0
 10
55.81
 11
56
 20
-0.957
 21
0
  0
LINE
  8
0
 10
56
 11
55.81
 20
0
 21
0.957
  0
LINE
  8
0
 10
55.81
 11
55.268
 20
0.957
 21
1.768
  0
LINE
  8
0
 10
55.268
 11
54.457
 20
1.768
 21
2.31
  0
LINE
  8
0
 10
54.457
 11
53.5
 20
2.31
 21
2.5
  0
LINE
  8
0
 10
53.5
 11
52.543
 20
2.5
 21
2.31
  0
LINE
  8
0
 10
52.543
 11
51.732
 20
2.31
 21
1.768
  0
LINE
  8
0
 10
51.732
 11
51.5
 20
1.768
 21
1.42
  0
LINE
  8
0
 10
51.5
 11
51.5
 20
1.42
 21
3
  0
LINE
  8
0
 10
51.5
 11
48.5
 20
3
 21
3
  0
LINE
  8
0
 10
48.5
 11
48.5
 20
3
 21
-59
  0
LINE
  8
0
 10
48.5
 11
68.5
 20
-59
 21
-59
  0
LINE
  8
0
 10
68.5
 11
68.5
 20
-59
 21
-73
  0
LINE
  8
0
 10
68.5
 11
-68.5
 20
-73
 21
-73
  0
LINE
  8
0
 10
-64
 11
-63.81
 20
-66
 21
-65.043
  0
LINE
  8
0
 10
-63.81
 11
-63.268
 20
-65.043
 21
-64.232
  0
LINE
  8
0
 10
-63.268
 11
-62.457
 20
-64.232
 21
-63.69
  0
LINE
  8
0
 10
-62.457
 11
-61.5
 20
-63.69
 21
-63.5
  0
LINE
  8
0
 10
-61.5
 11
-60.543
 20
-63.5
 21
-63.69
  0
LINE
  8
0
 10
-60.543
 11
-59.732
 20
-63.69
 21
-64.232
  0
LINE
  8
0
 10
-59.732
 11
-59.19
 20
-64.232
 21
-65.043
  0
LINE
  8
0
 10
-59.19
 11
-59
 20
-65.043
 21
-66
  0
LINE
  8
0
 10
-59
 11
-59.19
 20
-66
 21
-66.957
  0
LINE
  8
0
 10
-59.19
 11
-59.732
 20
-66.957
 21
-67.768
  0
LINE
  8
0
 10
-59.732
 11
-60.543
 20
-67.768
 21
-68.31
  0
LINE
  8
0
 10
-60.543
 11
-61.5
 20
-68.31
 21
-68.5
  0
LINE
  8
0
 10
-61.5
 11
-62.457
 20
-68.5
 21
-68.31
  0
LINE
  8
0
 10
-62.457
 11
-63.268
 20
-68.31
 21
-67.768
  0
LINE
  8
0
 10
-63.268
 11
-63.81
 20
-67.768
 21
-66.957
  0
LINE
  8
0
 10
-63.81
 11
-64
 20
-66.957
 21
-66
  0
LINE
  8
0
 10
-64
 11
-63.81
 20
66
 21
66.957
  0
LINE
  8
0
 10
-63.81
 11
-63.268
 20
66.957
 21
67.768
  0
LINE
  8
0
 10
-63.268
 11
-62.457
 20
67.768
 21
68.31
  0
LINE
  8
0
 10
-62.457
 11
-61.5
 20
68.31
 21
68.5
  0
LINE
  8
0
 10
-61.5
 11
-60.543
 20
68.5
 21
68.31
  0
LINE
  8
0
 10
-60.543
 11
-59.732
 20
68.31
 21
67.768
  0
LINE
  8
0
 10
-59.732
 11
-59.19
 20
67.768
 21
66.957
  0
LINE
  8
0
 10
-59.19
 11
-59
 20
66.957
 21
66
  0
LINE
  8
0
 10
-59
 11
-59.19
 20
66
 21
65.043
  0
LINE
  8
0
 10
-59.19
 11
-59.732
 20
65.043
 21
64.232
  0
LINE
  8
0
 10
-59.732
 11
-60.543
 20
64.232
 21
63.69
  0
LINE
  8
0
 10
-60.543
 11
-61.5
 20
63.69
 21
63.5
  0
LINE
  8
0
 10
-61.5
 11
-62.457
 20
63.5
 21
63.69
  0
LINE
  8
0
 10
-62.457
 11
-63.268
 20
63.69
 21
64.232
  0
LINE
  8
0
 10
-63.268
 11
-63.81
 20
64.232
 21
65.043
  0
LINE
  8
0
 10
-63.81
 11
-64
 20
65.043
 21
66
  0
LINE
  8
0
 10
-54
 11
-53.81
 20
-66
 21
-65.043
  0
LINE
  8
0
 10
-53.81
 11
-53.268
 20
-65.043
 21
-64.232
  0
LINE
  8
0
 10
-53.268
 11
-52.457
 20
-64.232
 21
-63.69
  0
LINE
  8
0
 10
-52.457
 11
-51.5
 20
-63.69
 21
-63.5
  0
LINE
  8
0
 10
-51.5
 11
-50.543
 20
-63.5
 21
-63.69
  0
LINE
  8
0
 10
-50.543
 11
-49.732
 20
-63.69
 21
-64.232
  0
LINE
  8
0
 10
-49.732
 11
-49.19
 20
-64.232
 21
-65.043
  0
LINE
  8
0
 10
-49.19
 11
-49
 20
-65.043
 21
-66
  0
LINE
  8
0
 10
-49
 11
-49.19
 20
-66
 21
-66.957
  0
LINE
  8
0
 10
-49.19
 11
-49.732
 20
-66.957
 21
-67.768
  0
LINE
  8
0
 10
-49.732
 11
-50.543
 20
-67.768
 21
-68.31
  0
LINE
  8
0
 10
-50.543
 11
-51.5
 20
-68.31
 21
-68.5
  0
LINE
  8
0
 10
-51.5
 11
-52.457
 20
-68.5
 21
-68.31
  0
LINE
  8
0
 10
-52.457
 11
-53.268
 20
-68.31
 21
-67.768
  0
LINE
  8
0
 10
-53.268
 11
-53.81
 20
-67.768
 21
-66.957
  0
LINE
  8
0
 10
-53.81
 11
-54
 20
-66.957
 21
-66
  0
LINE
  8
0
 10
-54
 11
-53.81
 20
66
 21
66.957
  0
LINE
  8
0
 10
-53.81
 11
-53.268
 20
66.957
 21
67.768
  0
LINE
  8
0
 10
-53.268
 11
-52.457
 20
67.768
 21
68.31
  0
LINE
  8
0
 10
-52.457
 11
-51.5
 20
68.31
 21
68.5
  0
LINE
  8
0
 10
-51.5
 11
-50.543
 20
68.5
 21
68.31
  0
LINE
  8
0
 10
-50.543
 11
-49.732
 20
68.31
 21
67.768
  0
LINE
  8
0
 10
-49.732
 11
-49.19
 20
67.768
 21
66.957
  0
LINE
  8
0
 10
-49.19
 11
-49
 20
66.957
 21
66
  0
LINE
  8
0
 10
-49
 11
-49.19
 20
66
 21
65.043
  0
LINE
  8
0
 10
-49.19
 11
-49.732
 20
65.043
 21
64.232
  0
LINE
  8
0
 10
-49.732
 11
-50.543
 20
64.232
 21
63.69
  0
LINE
  8
0
 10
-50.543
 11
-51.5
 20
63.69
 21
63.5
  0
LINE
  8
0
 10
-51.5
 11
-52.457
 20
63.5
 21
63.69
  0
LINE
  8
0
 10
-52.457
 11
-53.268
 20
63.69
 21
64.232
  0
LINE
  8
0
 10
-53.268
 11
-53.81
 20
64.232
 21
65.043
  0
LINE
  8
0
 10
-53.81
 11
-54
 20
65.043
 21
66
  0
LINE
  8
0
 10
-38.5
 11
-38.5
 20
-59
 21
59
  0
LINE
  8
0
 10
-38.5
 11
38.5
 20
59
 21
59
  0
LINE
  8
0
 10
38.5
 11
38.5
 20
59
 21
-59
  0
LINE
  8
0
 10
38.5
 11
-38.5
 20
-59
 21
-59
  0
LINE
  8
0
 10
-37.25
 11
-37.25
 20
-49.25
 21
-46.03
  0
LINE
  8
0
 10
-37.25
 11
-27.4
 20
-46.03
 21
-42.445
  0
LINE
  8
0
 10
-27.4
 11
-27.018
 20
-42.445
 21
-43.018
  0
LINE
  8
0
 10
-27.018
 11
-26.207
 20
-43.018
 21
-43.56
  0
LINE
  8
0
 10
-26.207
 11
-25.25
 20
-43.56
 21
-43.75
  0
LINE
  8
0
 10
-25.25
 11
-24.293
 20
-43.75
 21
-43.56
  0
LINE
  8
0
 10
-24.293
 11
-23.482
 20
-43.56
 21
-43.018
  0
LINE
  8
0
 10
-23.482
 11
-22.94
 20
-43.018
 21
-42.207
  0
LINE
  8
0
 10
-22.94
 11
-22.75
 20
-42.207
 21
-41.25
  0
LINE
  8
0
 10
-22.75
 11
-22.94
 20
-41.25
 21
-40.293
  0
LINE
  8
0
 10
-22.94
 11
-23.482
 20
-40.293
 21
-39.482
  0
LINE
  8
0
 10
-23.482
 11
-24.293
 20
-39.482
 21
-38.94
  0
LINE
  8
0
 10
-24.293
 11
-24.487
 20
-38.94
 21
-38.902
  0
LINE
  8
0
 10
-24.487
 11
-24.715
 20
-38.902
 21
-38.275
  0
LINE
  8
0
 10
-24.715
 11
-37.25
 20
-38.275
 21
-42.838
  0
LINE
  8
0
 10
-37.25
 11
-37.25
 20
-42.838
 21
-27.662
  0
LINE
  8
0
 10
-37.25
 11
-24.715
 20
-27.662
 21
-32.225
  0
LINE
  8
0
 10
-24.715
 11
-24.417
 20
-32.225
 21
-31.405
  0
LINE
  8
0
 10
-24.417
 11
-23.482
 20
-31.405
 21
-31.018
  0
LINE
  8
0
 10
-23.482
 11
-22.75
 20
-31.018
 21
-29.25
  0
LINE
  8
0
 10
-22.75
 11
-23.482
 20
-29.25
 21
-27.482
  0
LINE
  8
0
 10
-23.482
 11
-25.25
 20
-27.482
 21
-26.75
  0
LINE
  8
0
 10
-25.25
 11
-27.018
 20
-26.75
 21
-27.482
  0
LINE
  8
0
 10
-27.018
 11
-27.274
 20
-27.482
 21
-28.101
  0
LINE
  8
0
 10
-27.274
 11
-37.25
 20
-28.101
 21
-24.47
  0
LINE
  8
0
 10
-37.25
 11
-37.25
 20
-24.47
 21
-15.662
  0
LINE
  8
0
 10
-37.25
 11
-24.715
 20
-15.662
 21
-20.225
  0
LINE
  8
0
 10
-24.715
 11
-24.487
 20
-20.225
 21
-19.598
  0
LINE
  8
0
 10
-24.487
 11
-24.293
 20
-19.598
 21
-19.56
  0
LINE
  8
0
 10
-24.293
 11
-23.482
 20
-19.56
 21
-19.018
  0
LINE
  8
0
 10
-23.482
 11
-22.94
 20
-19.018
 21
-18.207
  0
LINE
  8
0
 10
-22.94
 11
-22.75
 20
-18.207
 21
-17.25
  0
LINE
  8
0
 10
-22.75
 11
-22.94
 20
-17.25
 21
-16.293
  0
LINE
  8
0
 10
-22.94
 11
-23.482
 20
-16.293
 21
-15.482
  0
LINE
  8
0
 10
-23.482
 11
-24.293
 20
-15.482
 21
-14.94
  0
LINE
  8
0
 10
-24.293
 11
-25.25
 20
-14.94
 21
-14.75
  0
LINE
  8
0
 10
-25.25
 11
-26.207
 20
-14.75
 21
-14.94
  0
LINE
  8
0
 10
-26.207
 11
-27.018
 20
-14.94
 21
-15.482
  0
LINE
  8
0
 10
-27.018
 11
-27.4
 20
-15.482
 21
-16.055
  0
LINE
  8
0
 10
-27.4
 11
-37.25
 20
-16.055
 21
-12.47
  0
LINE
  8
0
 10
-37.25
 11
-37.25
 20
-12.47
 21
-9.25
  0
LINE
  8
0
 10
-37.25
 11
-17.25
 20
-9.25
 21
-9.25
  0
LINE
  8
0
 10
-17.25
 11
-17.25
 20
-9.25
 21
-49.25
  0
LINE
  8
0
 10
-17.25
 11
-37.25
 20
-49.25
 21
-49.25
  0
LINE
  8
0
 10
-37.25
 11
-37.25
 20
9.25
 21
12.47
  0
LINE
  8
0
 10
-37.25
 11
-27.4
 20
12.47
 21
16.055
  0
LINE
  8
0
 10
-27.4
 11
-27.018
 20
16.055
 21
15.482
  0
LINE
  8
0
 10
-27.018
 11
-26.207
 20
15.482
 21
14.94
  0
LINE
  8
0
 10
-26.207
 11
-25.25
 20
14.94
 21
14.75
  0
LINE
  8
0
 10
-25.25
 11
-24.293
 20
14.75
 21
14.94
  0
LINE
  8
0
 10
-24.293
 11
-23.482
 20
14.94
 21
15.482
  0
LINE
  8
0
 10
-23.482
 11
-22.94
 20
15.482
 21
16.293
  0
LINE
  8
0
 10
-22.94
 11
-22.75
 20
16.293
 21
17.25
  0
LINE
  8
0
 10
-22.75
 11
-22.94
 20
17.25
 21
18.207
  0
LINE
  8
0
 10
-22.94
 11
-23.482
 20
18.207
 21
19.018
  0
LINE
  8
0
 10
-23.482
 11
-24.293
 20
19.018
 21
19.56
  0
LINE
  8
0
 10
-24.293
 11
-24.487
 20
19.56
 21
19.598
  0
LINE
  8
0
 10
-24.487
 11
-24.715
 20
19.598
 21
20.225
  0
LINE
  8
0
 10
-24.715
 11
-37.25
 20
20.225
 21
15.662
  0
LINE
  8
0
 10
-37.25
 11
-37.25
 20
15.662
 21
30.838
  0
LINE
  8
0
 10
-37.25
 11
-24.715
 20
30.838
 21
26.275
  0
LINE
  8
0
 10
-24.715
 11
-24.417
 20
26.275
 21
27.095
  0
LINE
  8
0
 10
-24.417
 11
-23.482
 20
27.095
 21
27.482
  0
LINE
  8
0
 10
-23.482
 11
-22.75
 20
27.482
 21
29.25
  0
LINE
  8
0
 10
-22.75
 11
-23.482
 20
29.25
 21
31.018
  0
LINE
  8
0
 10
-23.482
 11
-25.25
 20
31.018
 21
31.75
  0
LINE
  8
0
 10
-25.25
 11
-27.018
 20
31.75
 21
31.018
  0
LINE
  8
0
 10
-27.018
 11
-27.274
 20
31.018
 21
30.399
  0
LINE
  8
0
 10
-27.274
 11
-37.25
 20
30.399
 21
34.03
  0
LINE
  8
0
 10
-37.25
 11
-37.25
 20
34.03
 21
42.838
  0
LINE
  8
0
 10
-37.25
 11
-24.715
 20
42.838
 21
38.275
  0
LINE
  8
0
 10
-24.715
 11
-24.487
 20
38.275
 21
38.902
  0
LINE
  8
0
 10
-24.487
 11
-24.293
 20
38.902
 21
38.94
  0
LINE
  8
0
 10
-24.293
 11
-23.482
 20
38.94
 21
39.482
  0
LINE
  8
0
 10
-23.482
 11
-22.94
 20
39.482
 21
40.293
  0
LINE
  8
0
 10
-22.94
 11
-22.75
 20
40.293
 21
41.25
  0
LINE
  8
0
 10
-22.75
 11
-22.94
 20
41.25
 21
42.207
  0
LINE
  8
0
 10
-22.94
 11
-23.482
 20
42.207
 21
43.018
  0
LINE
  8
0
 10
-23.482
 11
-24.293
 20
43.018
 21
43.56
  0
LINE
  8
0
 10
-24.293
 11
-25.25
 20
43.56
 21
43.75
  0
LINE
  8
0
 10
-25.25
 11
-26.207
 20
43.75
 21
43.56
  0
LINE
  8
0
 10
-26.207
 11
-27.018
 20
43.56
 21
43.018
  0
LINE
  8
0
 10
-27.018
 11
-27.4
 20
43.018
 21
42.445
  0
LINE
  8
0
 10
-27.4
 11
-37.25
 20
42.445
 21
46.03
  0
LINE
  8
0
 10
-37.25
 11
-37.25
 20
46.03
 21
49.25
  0
LINE
  8
0
 10
-37.25
 11
-17.25
 20
49.25
 21
49.25
  0
LINE
  8
0
 10
-17.25
 11
-17.25
 20
49.25
 21
9.25
  0
LINE
  8
0
 10
-17.25
 11
-37.25
 20
9.25
 21
9.25
  0
LINE
  8
0
 10
-34.75
 11
-34.56
 20
-35.25
 21
-34.293
  0
LINE
  8
0
 10
-34.56
 11
-34.018
 20
-34.293
 21
-33.482
  0
LINE
  8
0
 10
-34.018
 11
-33.207
 20
-33.482
 21
-32.94
  0
LINE
  8
0
 10
-33.207
 11
-32.25
 20
-32.94
 21
-32.75
  0
LINE
  8
0
 10
-32.25
 11
-31.293
 20
-32.75
 21
-32.94
  0
LINE
  8
0
 10
-31.293
 11
-30.482
 20
-32.94
 21
-33.482
  0
LINE
  8
0
 10
-30.482
 11
-29.94
 20
-33.482
 21
-34.293
  0
LINE
  8
0
 10
-29.94
 11
-29.75
 20
-34.293
 21
-35.25
  0
LINE
  8
0
 10
-29.75
 11
-29.94
 20
-35.25
 21
-36.207
  0
LINE
  8
0
 10
-29.94
 11
-30.482
 20
-36.207
 21
-37.018
  0
LINE
  8
0
 10
-30.482
 11
-31.293
 20
-37.018
 21
-37.56
  0
LINE
  8
0
 10
-31.293
 11
-32.25
 20
-37.56
 21
-37.75
  0
LINE
  8
0
 10
-32.25
 11
-33.207
 20
-37.75
 21
-37.56
  0
LINE
  8
0
 10
-33.207
 11
-34.018
 20
-37.56
 21
-37.018
  0
LINE
  8
0
 10
-34.018
 11
-34.56
 20
-37.018
 21
-36.207
  0
LINE
  8
0
 10
-34.56
 11
-34.75
 20
-36.207
 21
-35.25
  0
LINE
  8
0
 10
-34.75
 11
-34.56
 20
23.25
 21
24.207
  0
LINE
  8
0
 10
-34.56
 11
-34.018
 20
24.207
 21
25.018
  0
LINE
  8
0
 10
-34.018
 11
-33.207
 20
25.018
 21
25.56
  0
LINE
  8
0
 10
-33.207
 11
-32.25
 20
25.56
 21
25.75
  0
LINE
  8
0
 10
-32.25
 11
-31.293
 20
25.75
 21
25.56
  0
LINE
  8
0
 10
-31.293
 11
-30.482
 20
25.56
 21
25.018
  0
LINE
  8
0
 10
-30.482
 11
-29.94
 20
25.018
 21
24.207
  0
LINE
  8
0
 10
-29.94
 11
-29.75
 20
24.207
 21
23.25
  0
LINE
  8
0
 10
-29.75
 11
-29.94
 20
23.25
 21
22.293
  0
LINE
  8
0
 10
-29.94
 11
-30.482
 20
22.293
 21
21.482
  0
LINE
  8
0
 10
-30.482
 11
-31.293
 20
21.482
 21
20.94
  0
LINE
  8
0
 10
-31.293
 11
-32.25
 20
20.94
 21
20.75
  0
LINE
  8
0
 10
-32.25
 11
-33.207
 20
20.75
 21
20.94
  0
LINE
  8
0
 10
-33.207
 11
-34.018
 20
20.94
 21
21.482
  0
LINE
  8
0
 10
-34.018
 11
-34.56
 20
21.482
 21
22.293
  0
LINE
  8
0
 10
-34.56
 11
-34.75
 20
22.293
 21
23.25
  0
LINE
  8
0
 10
-15
 11
-15
 20
-58.5
 21
58.5
  0
LINE
  8
0
 10
-15
 11
-1
 20
58.5
 21
58.5
  0
LINE
  8
0
 10
-1
 11
-1
 20
58.5
 21
-58.5
  0
LINE
  8
0
 10
-1
 11
-15
 20
-58.5
 21
-58.5
  0
LINE
  8
0
 10
-10.5
 11
-10.31
 20
-51.5
 21
-50.543
  0
LINE
  8
0
 10
-10.31
 11
-9.768
 20
-50.543
 21
-49.732
  0
LINE
  8
0
 10
-9.768
 11
-8.957
 20
-49.732
 21
-49.19
  0
LINE
  8
0
 10
-8.957
 11
-8
 20
-49.19
 21
-49
  0
LINE
  8
0
 10
-8
 11
-7.043
 20
-49
 21
-49.19
  0
LINE
  8
0
 10
-7.043
 11
-6.232
 20
-49.19
 21
-49.732
  0
LINE
  8
0
 10
-6.232
 11
-5.69
 20
-49.732
 21
-50.543
  0
LINE
  8
0
 10
-5.69
 11
-5.5
 20
-50.543
 21
-51.5
  0
LINE
  8
0
 10
-5.5
 11
-5.69
 20
-51.5
 21
-52.457
  0
LINE
  8
0
 10
-5.69
 11
-6.232
 20
-52.457
 21
-53.268
  0
LINE
  8
0
 10
-6.232
 11
-7.043
 20
-53.268
 21
-53.81
  0
LINE
  8
0
 10
-7.043
 11
-8
 20
-53.81
 21
-54
  0
LINE
  8
0
 10
-8
 11
-8.957
 20
-54
 21
-53.81
  0
LINE
  8
0
 10
-8.957
 11
-9.768
 20
-53.81
 21
-53.268
  0
LINE
  8
0
 10
-9.768
 11
-10.31
 20
-53.268
 21
-52.457
  0
LINE
  8
0
 10
-10.31
 11
-10.5
 20
-52.457
 21
-51.5
  0
LINE
  8
0
 10
-10.5
 11
-10.31
 20
51.5
 21
52.457
  0
LINE
  8
0
 10
-10.31
 11
-9.768
 20
52.457
 21
53.268
  0
LINE
  8
0
 10
-9.768
 11
-8.957
 20
53.268
 21
53.81
  0
LINE
  8
0
 10
-8.957
 11
-8
 20
53.81
 21
54
  0
LINE
  8
0
 10
-8
 11
-7.043
 20
54
 21
53.81
  0
LINE
  8
0
 10
-7.043
 11
-6.232
 20
53.81
 21
53.268
  0
LINE
  8
0
 10
-6.232
 11
-5.69
 20
53.268
 21
52.457
  0
LINE
  8
0
 10
-5.69
 11
-5.5
 20
52.457
 21
51.5
  0
LINE
  8
0
 10
-5.5
 11
-5.69
 20
51.5
 21
50.543
  0
LINE
  8
0
 10
-5.69
 11
-6.232
 20
50.543
 21
49.732
  0
LINE
  8
0
 10
-6.232
 11
-7.043
 20
49.732
 21
49.19
  0
LINE
  8
0
 10
-7.043
 11
-8
 20
49.19
 21
49
  0
LINE
  8
0
 10
-8
 11
-8.957
 20
49
 21
49.19
  0
LINE
  8
0
 10
-8.957
 11
-9.768
 20
49.19
 21
49.732
  0
LINE
  8
0
 10
-9.768
 11
-10.31
 20
49.732
 21
50.543
  0
LINE
  8
0
 10
-10.31
 11
-10.5
 20
50.543
 21
51.5
  0
LINE
  8
0
 10
1
 11
1
 20
-58.5
 21
58.5
  0
LINE
  8
0
 10
1
 11
15
 20
58.5
 21
58.5
  0
LINE
  8
0
 10
15
 11
15
 20
58.5
 21
-58.5
  0
LINE
  8
0
 10
15
 11
1
 20
-58.5
 21
-58.5
  0
LINE
  8
0
 10
5.5
 11
5.69
 20
-51.5
 21
-50.543
  0
LINE
  8
0
 10
5.69
 11
6.232
 20
-50.543
 21
-49.732
  0
LINE
  8
0
 10
6.232
 11
7.043
 20
-49.732
 21
-49.19
  0
LINE
  8
0
 10
7.043
 11
8
 20
-49.19
 21
-49
  0
LINE
  8
0
 10
8
 11
8.957
 20
-49
 21
-49.19
  0
LINE
  8
0
 10
8.957
 11
9.768
 20
-49.19
 21
-49.732
  0
LINE
  8
0
 10
9.768
 11
10.31
 20
-49.732
 21
-50.543
  0
LINE
  8
0
 10
10.31
 11
10.5
 20
-50.543
 21
-51.5
  0
LINE
  8
0
 10
10.5
 11
10.31
 20
-51.5
 21
-52.457
  0
LINE
  8
0
 10
10.31
 11
9.768
 20
-52.457
 21
-53.268
  0
LINE
  8
0
 10
9.768
 11
8.957
 20
-53.268
 21
-53.81
  0
LINE
  8
0
 10
8.957
 11
8
 20
-53.81
 21
-54
  0
LINE
  8
0
 10
8
 11
7.043
 20
-54
 21
-53.81
  0
LINE
  8
0
 10
7.043
 11
6.232
 20
-53.81
 21
-53.268
  0
LINE
  8
0
 10
6.232
 11
5.69
 20
-53.268
 21
-52.457
  0
LINE
  8
0
 10
5.69
 11
5.5
 20
-52.457
 21
-51.5
  0
LINE
  8
0
 10
5.5
 11
5.69
 20
51.5
 21
52.457
  0
LINE
  8
0
 10
5.69
 11
6.232
 20
52.457
 21
53.268
  0
LINE
  8
0
 10
6.232
 11
7.043
 20
53.268
 21
53.81
  0
LINE
  8
0
 10
7.043
 11
8
 20
53.81
 21
54
  0
LINE
  8
0
 10
8
 11
8.957
 20
54
 21
53.81
  0
LINE
  8
0
 10
8.957
 11
9.768
 20
53.81
 21
53.268
  0
LINE
  8
0
 10
9.768
 11
10.31
 20
53.268
 21
52.457
  0
LINE
  8
0
 10
10.31
 11
10.5
 20
52.457
 21
51.5
  0
LINE
  8
0
 10
10.5
 11
10.31
 20
51.5
 21
50.543
  0
LINE
  8
0
 10
10.31
 11
9.768
 20
50.543
 21
49.732
  0
LINE
  8
0
 10
9.768
 11
8.957
 20
49.732
 21
49.19
  0
LINE
  8
0
 10
8.957
 11
8
 20
49.19
 21
49
  0
LINE
  8
0
 10
8
 11
7.043
 20
49
 21
49.19
  0
LINE
  8
0
 10
7.043
 11
6.232
 20
49.19
 21
49.732
  0
LINE
  8
0
 10
6.232
 11
5.69
 20
49.732
 21
50.543
  0
LINE
  8
0
 10
5.69
 11
5.5
 20
50.543
 21
51.5
  0
LINE
  8
0
 10
17.25
 11
17.25
 20
-49.25
 21
-46.03
  0
LINE
  8
0
 10
17.25
 11
27.1
 20
-46.03
 21
-42.445
  0
LINE
  8
0
 10
27.1
 11
27.482
 20
-42.445
 21
-43.018
  0
LINE
  8
0
 10
27.482
 11
28.293
 20
-43.018
 21
-43.56
  0
LINE
  8
0
 10
28.293
 11
29.25
 20
-43.56
 21
-43.75
  0
LINE
  8
0
 10
29.25
 11
30.207
 20
-43.75
 21
-43.56
  0
LINE
  8
0
 10
30.207
 11
31.018
 20
-43.56
 21
-43.018
  0
LINE
  8
0
 10
31.018
 11
31.56
 20
-43.018
 21
-42.207
  0
LINE
  8
0
 10
31.56
 11
31.75
 20
-42.207
 21
-41.25
  0
LINE
  8
0
 10
31.75
 11
31.56
 20
-41.25
 21
-40.293
  0
LINE
  8
0
 10
31.56
 11
31.018
 20
-40.293
 21
-39.482
  0
LINE
  8
0
 10
31.018
 11
30.207
 20
-39.482
 21
-38.94
  0
LINE
  8
0
 10
30.207
 11
30.013
 20
-38.94
 21
-38.902
  0
LINE
  8
0
 10
30.013
 11
29.785
 20
-38.902
 21
-38.275
  0
LINE
  8
0
 10
29.785
 11
17.25
 20
-38.275
 21
-42.838
  0
LINE
  8
0
 10
17.25
 11
17.25
 20
-42.838
 21
-27.662
  0
LINE
  8
0
 10
17.25
 11
29.785
 20
-27.662
 21
-32.225
  0
LINE
  8
0
 10
29.785
 11
30.083
 20
-32.225
 21
-31.405
  0
LINE
  8
0
 10
30.083
 11
31.018
 20
-31.405
 21
-31.018
  0
LINE
  8
0
 10
31.018
 11
31.75
 20
-31.018
 21
-29.25
  0
LINE
  8
0
 10
31.75
 11
31.018
 20
-29.25
 21
-27.482
  0
LINE
  8
0
 10
31.018
 11
29.25
 20
-27.482
 21
-26.75
  0
LINE
  8
0
 10
29.25
 11
27.482
 20
-26.75
 21
-27.482
  0
LINE
  8
0
 10
27.482
 11
27.226
 20
-27.482
 21
-28.101
  0
LINE
  8
0
 10
27.226
 11
17.25
 20
-28.101
 21
-24.47
  0
LINE
  8
0
 10
17.25
 11
17.25
 20
-24.47
 21
-15.662
  0
LINE
  8
0
 10
17.25
 11
29.785
 20
-15.662
 21
-20.225
  0
LINE
  8
0
 10
29.785
 11
30.013
 20
-20.225
 21
-19.598
  0
LINE
  8
0
 10
30.013
 11
30.207
 20
-19.598
 21
-19.56
  0
LINE
  8
0
 10
30.207
 11
31.018
 20
-19.56
 21
-19.018
  0
LINE
  8
0
 10
31.018
 11
31.56
 20
-19.018
 21
-18.207
  0
LINE
  8
0
 10
31.56
 11
31.75
 20
-18.207
 21
-17.25
  0
LINE
  8
0
 10
31.75
 11
31.56
 20
-17.25
 21
-16.293
  0
LINE
  8
0
 10
31.56
 11
31.018
 20
-16.293
 21
-15.482
  0
LINE
  8
0
 10
31.018
 11
30.207
 20
-15.482
 21
-14.94
  0
LINE
  8
0
 10
30.207
 11
29.25
 20
-14.94
 21
-14.75
  0
LINE
  8
0
 10
29.25
 11
28.293
 20
-14.75
 21
-14.94
  0
LINE
  8
0
 10
28.293
 11
27.482
 20
-14.94
 21
-15.482
  0
LINE
  8
0
 10
27.482
 11
27.1
 20
-15.482
 21
-16.055
  0
LINE
  8
0
 10
27.1
 11
17.25
 20
-16.055
 21
-12.47
  0
LINE
  8
0
 10
17.25
 11
17.25
 20
-12.47
 21
-9.25
  0
LINE
  8
0
 10
17.25
 11
37.25
 20
-9.25
 21
-9.25
  0
LINE
  8
0
 10
37.25
 11
37.25
 20
-9.25
 21
-49.25
  0
LINE
  8
0
 10
37.25
 11
17.25
 20
-49.25
 21
-49.25
  0
LINE
  8
0
 10
17.25
 11
17.25
 20
9.25
 21
12.47
  0
LINE
  8
0
 10
17.25
 11
27.1
 20
12.47
 21
16.055
  0
LINE
  8
0
 10
27.1
 11
27.482
 20
16.055
 21
15.482
  0
LINE
  8
0
 10
27.482
 11
28.293
 20
15.482
 21
14.94
  0
LINE
  8
0
 10
28.293
 11
29.25
 20
14.94
 21
14.75
  0
LINE
  8
0
 10
29.25
 11
30.207
 20
14.75
 21
14.94
  0
LINE
  8
0
 10
30.207
 11
31.018
 20
14.94
 21
15.482
  0
LINE
  8
0
 10
31.018
 11
31.56
 20
15.482
 21
16.293
  0
LINE
  8
0
 10
31.56
 11
31.75
 20
16.293
 21
17.25
  0
LINE
  8
0
 10
31.75
 11
31.56
 20
17.25
 21
18.207
  0
LINE
  8
0
 10
31.56
 11
31.018
 20
18.207
 21
19.018
  0
LINE
  8
0
 10
31.018
 11
30.207
 20
19.018
 21
19.56
  0
LINE
  8
0
 10
30.207
 11
30.013
 20
19.56
 21
19.598
  0
LINE
  8
0
 10
30.013
 11
29.785
 20
19.598
 21
20.225
  0
LINE
  8
0
 10
29.785
 11
17.25
 20
20.225
 21
15.662
  0
LINE
  8
0
 10
17.25
 11
17.25
 20
15.662
 21
30.838
  0
LINE
  8
0
 10
17.25
 11
29.785
 20
30.838
 21
26.275
  0
LINE
  8
0
 10
29.785
 11
30.083
 20
26.275
 21
27.095
  0
LINE
  8
0
 10
30.083
 11
31.018
 20
27.095
 21
27.482
  0
LINE
  8
0
 10
31.018
 11
31.75
 20
27.482
 21
29.25
  0
LINE
  8
0
 10
31.75
 11
31.018
 20
29.25
 21
31.018
  0
LINE
  8
0
 10
31.018
 11
29.25
 20
31.018
 21
31.75
  0
LINE
  8
0
 10
29.25
 11
27.482
 20
31.75
 21
31.018
  0
LINE
  8
0
 10
27.482
 11
27.226
 20
31.018
 21
30.399
  0
LINE
  8
0
 10
27.226
 11
17.25
 20
30.399
 21
34.03
  0
LINE
  8
0
 10
17.25
 11
17.25
 20
34.03
 21
42.838
  0
LINE
  8
0
 10
17.25
 11
29.785
 20
42.838
 21
38.275
  0
LINE
  8
0
 10
29.785
 11
30.013
 20
38.275
 21
38.902
  0
LINE
  8
0
 10
30.013
 11
30.207
 20
38.902
 21
38.94
  0
LINE
  8
0
 10
30.207
 11
31.018
 20
38.94
 21
39.482
  0
LINE
  8
0
 10
31.018
 11
31.56
 20
39.482
 21
40.293
  0
LINE
  8
0
 10
31.56
 11
31.75
 20
40.293
 21
41.25
  0
LINE
  8
0
 10
31.75
 11
31.56
 20
41.25
 21
42.207
  0
LINE
  8
0
 10
31.56
 11
31.018
 20
42.207
 21
43.018
  0
LINE
  8
0
 10
31.018
 11
30.207
 20
43.018
 21
43.56
  0
LINE
  8
0
 10
30.207
 11
29.25
 20
43.56
 21
43.75
  0
LINE
  8
0
 10
29.25
 11
28.293
 20
43.75
 21
43.56
  0
LINE
  8
0
 10
28.293
 11
27.482
 20
43.56
 21
43.018
  0
LINE
  8
0
 10
27.482
 11
27.1
 20
43.018
 21
42.445
  0
LINE
  8
0
 10
27.1
 11
17.25
 20
42.445
 21
46.03
  0
LINE
  8
0
 10
17.25
 11
17.25
 20
46.03
 21
49.25
  0
LINE
  8
0
 10
17.25
 11
37.25
 20
49.25
 21
49.25
  0
LINE
  8
0
 10
37.25
 11
37.25
 20
49.25
 21
9.25
  0
LINE
  8
0
 10
37.25
 11
17.25
 20
9.25
 21
9.25
  0
LINE
  8
0
 10
19.75
 11
19.94
 20
-35.25
 21
-34.293
  0
LINE
  8
0
 10
19.94
 11
20.482
 20
-34.293
 21
-33.482
  0
LINE
  8
0
 10
20.482
 11
21.293
 20
-33.482
 21
-32.94
  0
LINE
  8
0
 10
21.293
 11
22.25
 20
-32.94
 21
-32.75
  0
LINE
  8
0
 10
22.25
 11
23.207
 20
-32.75
 21
-32.94
  0
LINE
  8
0
 10
23.207
 11
24.018
 20
-32.94
 21
-33.482
  0
LINE
  8
0
 10
24.018
 11
24.56
 20
-33.482
 21
-34.293
  0
LINE
  8
0
 10
24.56
 11
24.75
 20
-34.293
 21
-35.25
  0
LINE
  8
0
 10
24.75
 11
24.56
 20
-35.25
 21
-36.207
  0
LINE
  8
0
 10
24.56
 11
24.018
 20
-36.207
 21
-37.018
  0
LINE
  8
0
 10
24.018
 11
23.207
 20
-37.018
 21
-37.56
  0
LINE
  8
0
 10
23.207
 11
22.25
 20
-37.56
 21
-37.75
  0
LINE
  8
0
 10
22.25
 11
21.293
 20
-37.75
 21
-37.56
  0
LINE
  8
0
 10
21.293
 11
20.482
 20
-37.56
 21
-37.018
  0
LINE
  8
0
 10
20.482
 11
19.94
 20
-37.018
 21
-36.207
  0
LINE
  8
0
 10
19.94
 11
19.75
 20
-36.207
 21
-35.25
  0
LINE
  8
0
 10
19.75
 11
19.94
 20
23.25
 21
24.207
  0
LINE
  8
0
 10
19.94
 11
20.482
 20
24.207
 21
25.018
  0
LINE
  8
0
 10
20.482
 11
21.293
 20
25.018
 21
25.56
  0
LINE
  8
0
 10
21.293
 11
22.25
 20
25.56
 21
25.75
  0
LINE
  8
0
 10
22.25
 11
23.207
 20
25.75
 21
25.56
  0
LINE
  8
0
 10
23.207
 11
24.018
 20
25.56
 21
25.018
  0
LINE
  8
0
 10
24.018
 11
24.56
 20
25.018
 21
24.207
  0
LINE
  8
0
 10
24.56
 11
24.75
 20
24.207
 21
23.25
  0
LINE
  8
0
 10
24.75
 11
24.56
 20
23.25
 21
22.293
  0
LINE
  8
0
 10
24.56
 11
24.018
 20
22.293
 21
21.482
  0
LINE
  8
0
 10
24.018
 11
23.207
 20
21.482
 21
20.94
  0
LINE
  8
0
 10
23.207
 11
22.25
 20
20.94
 21
20.75
  0
LINE
  8
0
 10
22.25
 11
21.293
 20
20.75
 21
20.94
  0
LINE
  8
0
 10
21.293
 11
20.482
 20
20.94
 21
21.482
  0
LINE
  8
0
 10
20.482
 11
19.94
 20
21.482
 21
22.293
  0
LINE
  8
0
 10
19.94
 11
19.75
 20
22.293
 21
23.25
  0
LINE
  8
0
 10
49
 11
49.19
 20
-66
 21
-65.043
  0
LINE
  8
0
 10
49.19
 11
49.732
 20
-65.043
 21
-64.232
  0
LINE
  8
0
 10
49.732
 11
50.543
 20
-64.232
 21
-63.69
  0
LINE
  8
0
 10
50.543
 11
51.5
 20
-63.69
 21
-63.5
  0
LINE
  8
0
 10
51.5
 11
52.457
 20
-63.5
 21
-63.69
  0
LINE
  8
0
 10
52.457
 11
53.268
 20
-63.69
 21
-64.232
  0
LINE
  8
0
 10
53.268
 11
53.81
 20
-64.232
 21
-65.043
  0
LINE
  8
0
 10
53.81
 11
54
 20
-65.043
 21
-66
  0
LINE
  8
0
 10
54
 11
53.81
 20
-66
 21
-66.957
  0
LINE
  8
0
 10
53.81
 11
53.268
 20
-66.957
 21
-67.768
  0
LINE
  8
0
 10
53.268
 11
52.457
 20
-67.768
 21
-68.31
  0
LINE
  8
0
 10
52.457
 11
51.5
 20
-68.31
 21
-68.5
  0
LINE
  8
0
 10
51.5
 11
50.543
 20
-68.5
 21
-68.31
  0
LINE
  8
0
 10
50.543
 11
49.732
 20
-68.31
 21
-67.768
  0
LINE
  8
0
 10
49.732
 11
49.19
 20
-67.768
 21
-66.957
  0
LINE
  8
0
 10
49.19
 11
49
 20
-66.957
 21
-66
  0
LINE
  8
0
 10
49
 11
49.19
 20
66
 21
66.957
  0
LINE
  8
0
 10
49.19
 11
49.732
 20
66.957
 21
67.768
  0
LINE
  8
0
 10
49.732
 11
50.543
 20
67.768
 21
68.31
  0
LINE
  8
0
 10
50.543
 11
51.5
 20
68.31
 21
68.5
  0
LINE
  8
0
 10
51.5
 11
52.457
 20
68.5
 21
68.31
  0
LINE
  8
0
 10
52.457
 11
53.268
 20
68.31
 21
67.768
  0
LINE
  8
0
 10
53.268
 11
53.81
 20
67.768
 21
66.957
  0
LINE
  8
0
 10
53.81
 11
54
 20
66.957
 21
66
  0
LINE
  8
0
 10
54
 11
53.81
 20
66
 21
65.043
  0
LINE
  8
0
 10
53.81
 11
53.268
 20
65.043
 21
64.232
  0
LINE
  8
0
 10
53.268
 11
52.457
 20
64.232
 21
63.69
  0
LINE
  8
0
 10
52.457
 11
51.5
 20
63.69
 21
63.5
  0
LINE
  8
0
 10
51.5
 11
50.543
 20
63.5
 21
63.69
  0
LINE
  8
0
 10
50.543
 11
49.732
 20
63.69
 21
64.232
  0
LINE
  8
0
 10
49.732
 11
49.19
 20
64.232
 21
65.043
  0
LINE
  8
0
 10
49.19
 11
49
 20
65.043
 21
66
  0
LINE
  8
0
 10
59
 11
59.19
 20
-66
 21
-65.043
  0
LINE
  8
0
 10
59.19
 11
59.732
 20
-65.043
 21
-64.232
  0
LINE
  8
0
 10
59.732
 11
60.543
 20
-64.232
 21
-63.69
  0
LINE
  8
0
 10
60.543
 11
61.5
 20
-63.69
 21
-63.5
  0
LINE
  8
0
 10
61.5
 11
62.457
 20
-63.5
 21
-63.69
  0
LINE
  8
0
 10
62.457
 11
63.268
 20
-63.69
 21
-64.232
  0
LINE
  8
0
 10
63.268
 11
63.81
 20
-64.232
 21
-65.043
  0
LINE
  8
0
 10
63.81
 11
64
 20
-65.043
 21
-66
  0
LINE
  8
0
 10
64
 11
63.81
 20
-66
 21
-66.957
  0
LINE
  8
0
 10
63.81
 11
63.268
 20
-66.957
 21
-67.768
  0
LINE
  8
0
 10
63.268
 11
62.457
 20
-67.768
 21
-68.31
  0
LINE
  8
0
 10
62.457
 11
61.5
 20
-68.31
 21
-68.5
  0
LINE
  8
0
 10
61.5
 11
60.543
 20
-68.5
 21
-68.31
  0
LINE
  8
0
 10
60.543
 11
59.732
 20
-68.31
 21
-67.768
  0
LINE
  8
0
 10
59.732
 11
59.19
 20
-67.768
 21
-66.957
  0
LINE
  8
0
 10
59.19
 11
59
 20
-66.957
 21
-66
  0
LINE
  8
0
 10
59
 11
59.19
 20
66
 21
66.957
  0
LINE
  8
0
 10
59.19
 11
59.732
 20
66.957
 21
67.768
  0
LINE
  8
0
 10
59.732
 11
60.543
 20
67.768
 21
68.31
  0
LINE
  8
0
 10
60.543
 11
61.5
 20
68.31
 21
68.5
  0
LINE
  8
0
 10
61.5
 11
62.457
 20
68.5
 21
68.31
  0
LINE
  8
0
 10
62.457
 11
63.268
 20
68.31
 21
67.768
  0
LINE
  8
0
 10
63.268
 11
63.81
 20
67.768
 21
66.957
  0
LINE
  8
0
 10
63.81
 11
64
 20
66.957
 21
66
  0
LINE
  8
0
 10
64
 11
63.81
 20
66
 21
65.043
  0
LINE
  8
0
 10
63.81
 11
63.268
 20
65.043
 21
64.232
  0
LINE
  8
0
 10
63.268
 11
62.457
 20
64.232
 21
63.69
  0
LINE
  8
0
 10
62.457
 11
61.5
 20
63.69
 21
63.5
  0
LINE
  8
0
 10
61.5
 11
60.543
 20
63.5
 21
63.69
  0
LINE
  8
0
 10
60.543
 11
59.732
 20
63.69
 21
64.232
  0
LINE
  8
0
 10
59.732
 11
59.19
 20
64.232
 21
65.043
  0
LINE
  8
0
 10
59.19
 11
59
 20
65.043
 21
66
  0
ENDSEC
  0
SECTION
  2
OBJECTS
  0
DICTIONARY
  0
ENDSEC
  0
EOF
