<?xml version="1.0" encoding="ISO-8859-1" standalone="no"?>
<!-- Created with kokopelli (kokompe.cba.mit.edu) -->
<!DOCTYPE svg PUBLIC "-//W3C//DTD SVG 20010904//EN"
 "http://www.w3.org/TR/2001/REC-SVG-20010904/DTD/svg10.dtd">
<svg
    xmlns   = "http://www.w3.org/2000/svg"
    width   = "3227.07mm"
    height  = "3787.14mm"
    units   = "mm"
>  <path style="stroke:rgb(0,0,0); stroke-width:37.8714; fill:none"        d="M1082.25 7336.49 L1082.25 6890.03 L1082.23 6889.68 L1082.02 6889.5 L632.721 6889.5 L632.367 6889.46 L632.25 6889.32 L632.25 6529.68 L632.367 6529.54 L632.721 6529.5 L1352.02 6529.5 L1352.23 6529.68 L1352.25 6530.03 L1352.25 12018.9 L1352.24 12019.3 L1352.02 12019.5 L452.719 12019.5 L452.365 12019.5 L452.25 12019.7 L452.25 13099.3 L452.365 13099.4 L452.719 13099.5 L10981.8 13099.5 L10982.1 13099.4 L10982.3 13099.3 L10982.3 12019.7 L10982.1 12019.5 L10981.8 12019.5 L10083.2 12019.5"/>
  <path style="stroke:rgb(0,0,0); stroke-width:37.8714; fill:none"        d="M1080.17 12560.4 L1080.06 12560 L1080 12559.6 L1080.01 12559.3 L1080.07 12558.9 L1080.19 12558.6 L1080.25 12558.5 L1080.39 12558.2 L1080.6 12558 L1080.7 12557.9 L1080.96 12557.7 L1081.19 12557.5 L1081.31 12557.5 L1081.66 12557.3 L1082.02 12557.3 L1082.37 12557.3 L1082.73 12557.3 L1083.08 12557.4 L1083.31 12557.5 L1083.44 12557.6 L1083.79 12557.9 L1083.81 12557.9 L1084.11 12558.2 L1084.14 12558.3 L1084.31 12558.6 L1084.43 12558.9 L1084.49 12559.3 L1084.5 12559.6 L1084.44 12560 L1084.33 12560.4 L1084.15 12560.7 L1084.14 12560.7 L1083.86 12561.1 L1083.79 12561.1 L1083.44 12561.4 L1083.42 12561.4 L1083.08 12561.6 L1082.73 12561.7 L1082.37 12561.7 L1082.02 12561.7 L1081.66 12561.7 L1081.31 12561.5 L1081.09 12561.4 L1080.96 12561.3 L1080.63 12561.1 L1080.6 12561 L1080.36 12560.7 L1080.25 12560.5 Z"/>
  <path style="stroke:rgb(0,0,0); stroke-width:37.8714; fill:none"        d="M2252.25 12019.3 L2252.25 3195.09 L2252.25 1399.7 L2252.39 1399.54 L2252.74 1399.5 L9181.76 1399.5 L9182.11 1399.54 L9182.25 1399.7 L9182.25 12019.3 L9182.11 12019.5 L9181.76 12019.5 L3891.89 12019.5 L2252.74 12019.5 L2252.39 12019.5 Z"/>
  <path style="stroke:rgb(0,0,0); stroke-width:37.8714; fill:none"        d="M272.25 7338.26 L272.25 7339.32 L272.363 7339.46 L272.717 7339.5 L274.134 7339.5"/>
  <path style="stroke:rgb(0,0,0); stroke-width:37.8714; fill:none"        d="M453.428 1399.5 L1352.02 1399.5 L1352.24 1399.7 L1352.25 1400.06 L1352.25 6078.97 L1352.23 6079.33 L1352.02 6079.5 L300.71 6079.5 L272.717 6079.5 L272.363 6079.54 L272.25 6079.68 L272.25 7338.26"/>
  <path style="stroke:rgb(0,0,0); stroke-width:37.8714; fill:none"        d="M274.134 7339.5 L476.105 7339.5 L1082.02 7339.5 L1082.23 7339.32 L1082.25 7338.97 L1082.25 7336.49"/>
  <path style="stroke:rgb(0,0,0); stroke-width:37.8714; fill:none"        d="M3827.25 11974.3 L3827.4 11974.5 L3827.76 11974.5 L4906.71 11974.5 L4907.06 11974.5 L4907.25 11974.3 L4907.25 4717.29 L4907.25 2134.58 L4907.25 1444.7 L4907.06 1444.51 L4906.71 1444.5 L3827.76 1444.5 L3827.4 1444.52 L3827.25 1444.7 Z"/>
  <path style="stroke:rgb(0,0,0); stroke-width:37.8714; fill:none"        d="M4365.17 11345.4 L4365.06 11345 L4365.01 11344.7 L4365.01 11344.3 L4365.07 11343.9 L4365.19 11343.6 L4365.28 11343.4 L4365.39 11343.2 L4365.64 11342.9 L4365.69 11342.9 L4365.99 11342.6 L4366.18 11342.5 L4366.35 11342.4 L4366.7 11342.3 L4367.06 11342.3 L4367.41 11342.3 L4367.77 11342.3 L4368.12 11342.4 L4368.32 11342.5 L4368.47 11342.6 L4368.81 11342.9 L4368.83 11342.9 L4369.11 11343.2 L4369.18 11343.4 L4369.31 11343.6 L4369.43 11343.9 L4369.49 11344.3 L4369.49 11344.7 L4369.44 11345 L4369.33 11345.4 L4369.18 11345.6 L4369.14 11345.7 L4368.86 11346.1 L4368.83 11346.1 L4368.47 11346.4 L4368.41 11346.4 L4368.12 11346.6 L4367.77 11346.7 L4367.41 11346.7 L4367.06 11346.7 L4366.7 11346.7 L4366.35 11346.6 L4366.1 11346.4 L4365.99 11346.4 L4365.64 11346.1 L4365.64 11346.1 L4365.36 11345.7 L4365.29 11345.6 Z"/>
  <path style="stroke:rgb(0,0,0); stroke-width:37.8714; fill:none"        d="M453.073 319.5 L452.719 319.5 L452.365 319.553 L452.25 319.709 L452.25 1399.35 L452.365 1399.48 L452.719 1399.5 L453.428 1399.5"/>
  <path style="stroke:rgb(0,0,0); stroke-width:37.8714; fill:none"        d="M458.389 319.5 L453.073 319.5"/>
  <path style="stroke:rgb(0,0,0); stroke-width:37.8714; fill:none"        d="M464.412 319.5 L458.389 319.5"/>
  <path style="stroke:rgb(0,0,0); stroke-width:37.8714; fill:none"        d="M10353.9 7339.5 L11161.8 7339.5 L11162.1 7339.46 L11162.2 7339.32 L11162.2 6079.68 L11162.1 6079.54 L11161.8 6079.5 L10082.5 6079.5 L10082.3 6079.33 L10082.2 6078.97 L10082.2 1547.81 L10082.2 1400.06 L10082.3 1399.7 L10082.5 1399.5 L10981.8 1399.5 L10982.1 1399.48 L10982.3 1399.35 L10982.3 449.394 L10982.3 319.709 L10982.1 319.552 L10981.8 319.5 L2722.23 319.5 L1224.81 319.5 L476.105 319.5 L464.412 319.5"/>
  <path style="stroke:rgb(0,0,0); stroke-width:37.8714; fill:none"        d="M1081.19 861.478 L1080.96 861.337 L1080.7 861.124 L1080.6 861.026 L1080.4 860.77 L1080.25 860.514 L1080.2 860.415 L1080.07 860.061 L1080.01 859.707 L1080 859.352 L1080.06 858.998 L1080.17 858.644 L1080.25 858.488 L1080.36 858.289 L1080.6 857.972 L1080.64 857.935 L1080.96 857.662 L1081.08 857.581 L1081.31 857.457 L1081.66 857.328 L1082.02 857.262 L1082.37 857.253 L1082.73 857.301 L1083.08 857.41 L1083.42 857.581 L1083.44 857.588 L1083.79 857.862 L1083.86 857.935 L1084.14 858.285 L1084.15 858.289 L1084.33 858.644 L1084.44 858.998 L1084.5 859.352 L1084.49 859.707 L1084.43 860.061 L1084.3 860.415 L1084.14 860.71 L1084.11 860.77 L1083.81 861.124 L1083.79 861.14 L1083.44 861.411 L1083.31 861.478 L1083.08 861.59 L1082.73 861.699 L1082.37 861.747 L1082.02 861.738 L1081.66 861.672 L1081.31 861.543 Z"/>
  <path style="stroke:rgb(0,0,0); stroke-width:37.8714; fill:none"        d="M4365.19 2075.41 L4365.07 2075.06 L4365.01 2074.7 L4365.01 2074.35 L4365.06 2073.99 L4365.17 2073.64 L4365.28 2073.41 L4365.36 2073.28 L4365.64 2072.93 L4365.64 2072.93 L4365.99 2072.64 L4366.09 2072.57 L4366.35 2072.44 L4366.7 2072.32 L4367.06 2072.26 L4367.41 2072.26 L4367.77 2072.31 L4368.12 2072.43 L4368.41 2072.57 L4368.47 2072.61 L4368.83 2072.9 L4368.86 2072.93 L4369.14 2073.28 L4369.18 2073.35 L4369.33 2073.64 L4369.44 2073.99 L4369.49 2074.35 L4369.49 2074.7 L4369.43 2075.06 L4369.31 2075.41 L4369.18 2075.64 L4369.11 2075.76 L4368.83 2076.1 L4368.81 2076.12 L4368.47 2076.39 L4368.32 2076.47 L4368.12 2076.57 L4367.77 2076.69 L4367.41 2076.74 L4367.06 2076.74 L4366.7 2076.68 L4366.35 2076.56 L4366.18 2076.47 L4365.99 2076.36 L4365.69 2076.12 L4365.64 2076.07 L4365.39 2075.76 L4365.28 2075.58 Z"/>
  <path style="stroke:rgb(0,0,0); stroke-width:37.8714; fill:none"        d="M6527.25 11974.3 L6527.44 11974.5 L6527.79 11974.5 L7606.74 11974.5 L7607.09 11974.5 L7607.25 11974.3 L7607.25 4714.45 L7607.25 2135.29 L7607.25 1444.7 L7607.09 1444.52 L7606.74 1444.5 L6527.79 1444.5 L6527.44 1444.51 L6527.25 1444.7 Z"/>
  <path style="stroke:rgb(0,0,0); stroke-width:37.8714; fill:none"        d="M7065.17 11345.4 L7065.06 11345 L7065.01 11344.7 L7065.01 11344.3 L7065.07 11343.9 L7065.19 11343.6 L7065.32 11343.4 L7065.39 11343.2 L7065.67 11342.9 L7065.69 11342.9 L7066.03 11342.6 L7066.18 11342.5 L7066.38 11342.4 L7066.73 11342.3 L7067.09 11342.3 L7067.44 11342.3 L7067.8 11342.3 L7068.15 11342.4 L7068.32 11342.5 L7068.51 11342.6 L7068.81 11342.9 L7068.86 11342.9 L7069.11 11343.2 L7069.21 11343.4 L7069.31 11343.6 L7069.43 11343.9 L7069.49 11344.3 L7069.49 11344.7 L7069.44 11345 L7069.33 11345.4 L7069.21 11345.6 L7069.14 11345.7 L7068.86 11346.1 L7068.86 11346.1 L7068.51 11346.4 L7068.4 11346.4 L7068.15 11346.6 L7067.8 11346.7 L7067.44 11346.7 L7067.09 11346.7 L7066.73 11346.7 L7066.38 11346.6 L7066.09 11346.4 L7066.03 11346.4 L7065.67 11346.1 L7065.64 11346.1 L7065.36 11345.7 L7065.32 11345.6 Z"/>
  <path style="stroke:rgb(0,0,0); stroke-width:37.8714; fill:none"        d="M10083.2 12019.5 L10082.5 12019.5 L10082.3 12019.3 L10082.2 12018.9 L10082.2 6530.03 L10082.3 6529.68 L10082.5 6529.5 L10801.8 6529.5 L10802.1 6529.54 L10802.3 6529.68 L10802.3 6530.39 L10802.3 6886.84 L10802.3 6888.26"/>
  <path style="stroke:rgb(0,0,0); stroke-width:37.8714; fill:none"        d="M10350.2 12560.4 L10350.1 12560 L10350 12559.6 L10350 12559.3 L10350.1 12558.9 L10350.2 12558.6 L10350.4 12558.3 L10350.4 12558.2 L10350.7 12557.9 L10350.7 12557.9 L10351.1 12557.6 L10351.2 12557.5 L10351.4 12557.4 L10351.8 12557.3 L10352.1 12557.3 L10352.5 12557.3 L10352.8 12557.3 L10353.2 12557.5 L10353.3 12557.5 L10353.5 12557.7 L10353.8 12557.9 L10353.9 12558 L10354.1 12558.2 L10354.3 12558.5 L10354.3 12558.6 L10354.4 12558.9 L10354.5 12559.3 L10354.5 12559.6 L10354.4 12560 L10354.3 12560.4 L10354.3 12560.5 L10354.1 12560.7 L10353.9 12561 L10353.9 12561.1 L10353.5 12561.3 L10353.4 12561.4 L10353.2 12561.5 L10352.8 12561.7 L10352.5 12561.7 L10352.1 12561.7 L10351.8 12561.7 L10351.4 12561.6 L10351.1 12561.4 L10351.1 12561.4 L10350.7 12561.1 L10350.6 12561.1 L10350.4 12560.7 Z"/>
  <path style="stroke:rgb(0,0,0); stroke-width:37.8714; fill:none"        d="M10353.2 6889.5 L10352.5 6889.5 L10352.3 6889.68 L10352.2 6890.03 L10352.2 7338.97 L10352.3 7339.32 L10352.5 7339.5 L10353.9 7339.5"/>
  <path style="stroke:rgb(0,0,0); stroke-width:37.8714; fill:none"        d="M10802.3 6888.26 L10802.3 6889.32 L10802.1 6889.46 L10801.8 6889.5 L10353.2 6889.5"/>
  <path style="stroke:rgb(0,0,0); stroke-width:37.8714; fill:none"        d="M7065.19 2075.41 L7065.07 2075.06 L7065.01 2074.7 L7065.01 2074.35 L7065.06 2073.99 L7065.17 2073.64 L7065.32 2073.36 L7065.36 2073.28 L7065.64 2072.93 L7065.67 2072.9 L7066.03 2072.61 L7066.09 2072.57 L7066.38 2072.43 L7066.73 2072.31 L7067.09 2072.26 L7067.44 2072.26 L7067.8 2072.32 L7068.15 2072.44 L7068.41 2072.57 L7068.51 2072.63 L7068.86 2072.93 L7068.86 2072.93 L7069.14 2073.28 L7069.21 2073.41 L7069.33 2073.64 L7069.44 2073.99 L7069.49 2074.35 L7069.49 2074.7 L7069.43 2075.06 L7069.31 2075.41 L7069.21 2075.59 L7069.11 2075.76 L7068.86 2076.07 L7068.81 2076.12 L7068.51 2076.36 L7068.32 2076.47 L7068.15 2076.56 L7067.8 2076.68 L7067.44 2076.74 L7067.09 2076.74 L7066.73 2076.69 L7066.38 2076.57 L7066.18 2076.47 L7066.03 2076.39 L7065.69 2076.12 L7065.67 2076.1 L7065.39 2075.76 L7065.32 2075.64 Z"/>
  <path style="stroke:rgb(0,0,0); stroke-width:37.8714; fill:none"        d="M10351.2 861.478 L10351.1 861.411 L10350.7 861.14 L10350.7 861.124 L10350.4 860.77 L10350.4 860.708 L10350.2 860.415 L10350.1 860.061 L10350 859.707 L10350 859.352 L10350.1 858.998 L10350.2 858.644 L10350.4 858.289 L10350.4 858.286 L10350.6 857.935 L10350.7 857.862 L10351.1 857.588 L10351.1 857.581 L10351.4 857.41 L10351.8 857.301 L10352.1 857.253 L10352.5 857.262 L10352.8 857.328 L10353.2 857.457 L10353.4 857.581 L10353.5 857.662 L10353.9 857.935 L10353.9 857.972 L10354.1 858.29 L10354.3 858.488 L10354.3 858.644 L10354.4 858.998 L10354.5 859.352 L10354.5 859.707 L10354.4 860.061 L10354.3 860.415 L10354.3 860.514 L10354.1 860.77 L10353.9 861.026 L10353.8 861.124 L10353.5 861.338 L10353.3 861.478 L10353.2 861.543 L10352.8 861.672 L10352.5 861.738 L10352.1 861.747 L10351.8 861.699 L10351.4 861.59 Z"/>
</svg>