  0
SECTION
  2
HEADER
  9
$ACADVER
  1
AC1009
  9
$EXTMIN
 10
0.0
 20
0.0
 30
0.0
  9
$EXTMAX
 10
1000.0
 20
1000.0
 30
0.0
  9
$FILLMODE
 70
 0
  9
$SPLFRAME
 70
 1
  0
ENDSEC
  0
SECTION
  2
TABLES
  0
TABLE
  2
LAYER
 70
1
  0
LAYER
  2
0
 70
     0
 62
     7
  6
CONTINUOUS
  0
ENDTAB
  0
ENDSEC
  0
SECTION
  2
ENTITIES
  0
POLYLINE
  8
0
 62
     0
 66
     1
 10
0
 20
0
 30
0.0
 40
30.2971
 41
30.2971
  0
VERTEX
  8
0
 10
9.21039
 20
64.2439
 30
0.0
 40
0.420793
 41
0.420793
  0
VERTEX
  8
0
 10
9.21039
 20
69.2046
 30
0.0
 40
0.420793
 41
0.420793
  0
VERTEX
  8
0
 10
9.21018
 20
69.2085
 30
0.0
 40
0.420793
 41
0.420793
  0
VERTEX
  8
0
 10
9.20785
 20
69.2104
 30
0.0
 40
0.420793
 41
0.420793
  0
VERTEX
  8
0
 10
4.21565
 20
69.2104
 30
0.0
 40
0.420793
 41
0.420793
  0
VERTEX
  8
0
 10
4.21169
 20
69.2108
 30
0.0
 40
0.420793
 41
0.420793
  0
VERTEX
  8
0
 10
4.21039
 20
69.2124
 30
0.0
 40
0.420793
 41
0.420793
  0
VERTEX
  8
0
 10
4.21039
 20
73.2085
 30
0.0
 40
0.420793
 41
0.420793
  0
VERTEX
  8
0
 10
4.21169
 20
73.21
 30
0.0
 40
0.420793
 41
0.420793
  0
VERTEX
  8
0
 10
4.21565
 20
73.2104
 30
0.0
 40
0.420793
 41
0.420793
  0
VERTEX
  8
0
 10
12.2078
 20
73.2104
 30
0.0
 40
0.420793
 41
0.420793
  0
VERTEX
  8
0
 10
12.2102
 20
73.2085
 30
0.0
 40
0.420793
 41
0.420793
  0
VERTEX
  8
0
 10
12.2104
 20
73.2046
 30
0.0
 40
0.420793
 41
0.420793
  0
VERTEX
  8
0
 10
12.2104
 20
12.2171
 30
0.0
 40
0.420793
 41
0.420793
  0
VERTEX
  8
0
 10
12.2103
 20
12.2127
 30
0.0
 40
0.420793
 41
0.420793
  0
VERTEX
  8
0
 10
12.2078
 20
12.2104
 30
0.0
 40
0.420793
 41
0.420793
  0
VERTEX
  8
0
 10
2.21169
 20
12.2104
 30
0.0
 40
0.420793
 41
0.420793
  0
VERTEX
  8
0
 10
2.21039
 20
12.2082
 30
0.0
 40
0.420793
 41
0.420793
  0
VERTEX
  8
0
 10
2.21039
 20
0.212674
 30
0.0
 40
0.420793
 41
0.420793
  0
VERTEX
  8
0
 10
2.21169
 20
0.211535
 30
0.0
 40
0.420793
 41
0.420793
  0
VERTEX
  8
0
 10
2.2156
 20
0.210449
 30
0.0
 40
0.420793
 41
0.420793
  0
VERTEX
  8
0
 10
119.205
 20
0.210449
 30
0.0
 40
0.420793
 41
0.420793
  0
VERTEX
  8
0
 10
119.209
 20
0.211535
 30
0.0
 40
0.420793
 41
0.420793
  0
VERTEX
  8
0
 10
119.211
 20
0.212674
 30
0.0
 40
0.420793
 41
0.420793
  0
VERTEX
  8
0
 10
119.211
 20
12.2082
 30
0.0
 40
0.420793
 41
0.420793
  0
VERTEX
  8
0
 10
119.209
 20
12.2104
 30
0.0
 40
0.420793
 41
0.420793
  0
VERTEX
  8
0
 10
109.221
 20
12.2104
 30
0.0
 40
0.420793
 41
0.420793
  0
SEQEND
 8
0
  0
POLYLINE
  8
0
 62
     0
 66
     1
 10
0
 20
0
 30
0.0
 70
     1
 40
30.2971
 41
30.2971
  0
VERTEX
  8
0
 10
9.18728
 20
6.20042
 30
0.0
 40
0.420793
 41
0.420793
  0
VERTEX
  8
0
 10
9.18608
 20
6.20486
 30
0.0
 40
0.420793
 41
0.420793
  0
VERTEX
  8
0
 10
9.18544
 20
6.20931
 30
0.0
 40
0.420793
 41
0.420793
  0
VERTEX
  8
0
 10
9.18554
 20
6.21267
 30
0.0
 40
0.420793
 41
0.420793
  0
VERTEX
  8
0
 10
9.18619
 20
6.21707
 30
0.0
 40
0.420793
 41
0.420793
  0
VERTEX
  8
0
 10
9.18756
 20
6.22043
 30
0.0
 40
0.420793
 41
0.420793
  0
VERTEX
  8
0
 10
9.18821
 20
6.22151
 30
0.0
 40
0.420793
 41
0.420793
  0
VERTEX
  8
0
 10
9.18972
 20
6.22488
 30
0.0
 40
0.420793
 41
0.420793
  0
VERTEX
  8
0
 10
9.19206
 20
6.22711
 30
0.0
 40
0.420793
 41
0.420793
  0
VERTEX
  8
0
 10
9.19319
 20
6.22819
 30
0.0
 40
0.420793
 41
0.420793
  0
VERTEX
  8
0
 10
9.19607
 20
6.23042
 30
0.0
 40
0.420793
 41
0.420793
  0
VERTEX
  8
0
 10
9.19863
 20
6.23264
 30
0.0
 40
0.420793
 41
0.420793
  0
VERTEX
  8
0
 10
9.19997
 20
6.23264
 30
0.0
 40
0.420793
 41
0.420793
  0
VERTEX
  8
0
 10
9.20389
 20
6.23486
 30
0.0
 40
0.420793
 41
0.420793
  0
VERTEX
  8
0
 10
9.21576
 20
6.23486
 30
0.0
 40
0.420793
 41
0.420793
  0
VERTEX
  8
0
 10
9.21961
 20
6.23378
 30
0.0
 40
0.420793
 41
0.420793
  0
VERTEX
  8
0
 10
9.22217
 20
6.23264
 30
0.0
 40
0.420793
 41
0.420793
  0
VERTEX
  8
0
 10
9.22364
 20
6.23156
 30
0.0
 40
0.420793
 41
0.420793
  0
VERTEX
  8
0
 10
9.22754
 20
6.22819
 30
0.0
 40
0.420793
 41
0.420793
  0
VERTEX
  8
0
 10
9.22775
 20
6.22819
 30
0.0
 40
0.420793
 41
0.420793
  0
VERTEX
  8
0
 10
9.23107
 20
6.22488
 30
0.0
 40
0.420793
 41
0.420793
  0
VERTEX
  8
0
 10
9.23139
 20
6.22374
 30
0.0
 40
0.420793
 41
0.420793
  0
VERTEX
  8
0
 10
9.23329
 20
6.22043
 30
0.0
 40
0.420793
 41
0.420793
  0
VERTEX
  8
0
 10
9.23465
 20
6.21707
 30
0.0
 40
0.420793
 41
0.420793
  0
VERTEX
  8
0
 10
9.23529
 20
6.21267
 30
0.0
 40
0.420793
 41
0.420793
  0
VERTEX
  8
0
 10
9.2354
 20
6.20931
 30
0.0
 40
0.420793
 41
0.420793
  0
VERTEX
  8
0
 10
9.23475
 20
6.20486
 30
0.0
 40
0.420793
 41
0.420793
  0
VERTEX
  8
0
 10
9.2335
 20
6.20042
 30
0.0
 40
0.420793
 41
0.420793
  0
VERTEX
  8
0
 10
9.23156
 20
6.1971
 30
0.0
 40
0.420793
 41
0.420793
  0
VERTEX
  8
0
 10
9.23139
 20
6.1971
 30
0.0
 40
0.420793
 41
0.420793
  0
VERTEX
  8
0
 10
9.22831
 20
6.19265
 30
0.0
 40
0.420793
 41
0.420793
  0
VERTEX
  8
0
 10
9.22754
 20
6.19265
 30
0.0
 40
0.420793
 41
0.420793
  0
VERTEX
  8
0
 10
9.22364
 20
6.18929
 30
0.0
 40
0.420793
 41
0.420793
  0
VERTEX
  8
0
 10
9.22342
 20
6.18929
 30
0.0
 40
0.420793
 41
0.420793
  0
VERTEX
  8
0
 10
9.21961
 20
6.18712
 30
0.0
 40
0.420793
 41
0.420793
  0
VERTEX
  8
0
 10
9.21576
 20
6.18599
 30
0.0
 40
0.420793
 41
0.420793
  0
VERTEX
  8
0
 10
9.20389
 20
6.18599
 30
0.0
 40
0.420793
 41
0.420793
  0
VERTEX
  8
0
 10
9.19997
 20
6.18821
 30
0.0
 40
0.420793
 41
0.420793
  0
VERTEX
  8
0
 10
9.19754
 20
6.18929
 30
0.0
 40
0.420793
 41
0.420793
  0
VERTEX
  8
0
 10
9.19607
 20
6.19043
 30
0.0
 40
0.420793
 41
0.420793
  0
VERTEX
  8
0
 10
9.19243
 20
6.19265
 30
0.0
 40
0.420793
 41
0.420793
  0
VERTEX
  8
0
 10
9.19206
 20
6.19374
 30
0.0
 40
0.420793
 41
0.420793
  0
VERTEX
  8
0
 10
9.1894
 20
6.1971
 30
0.0
 40
0.420793
 41
0.420793
  0
VERTEX
  8
0
 10
9.18821
 20
6.19933
 30
0.0
 40
0.420793
 41
0.420793
  0
VERTEX
  8
0
 10
9.18728
 20
6.20042
 30
0.0
 40
0.420793
 41
0.420793
  0
SEQEND
 8
0
  0
POLYLINE
  8
0
 62
     0
 66
     1
 10
0
 20
0
 30
0.0
 70
     1
 40
30.2971
 41
30.2971
  0
VERTEX
  8
0
 10
22.2104
 20
12.2127
 30
0.0
 40
0.420793
 41
0.420793
  0
VERTEX
  8
0
 10
22.2104
 20
130.208
 30
0.0
 40
0.420793
 41
0.420793
  0
VERTEX
  8
0
 10
22.2119
 20
130.21
 30
0.0
 40
0.420793
 41
0.420793
  0
VERTEX
  8
0
 10
22.2158
 20
130.21
 30
0.0
 40
0.420793
 41
0.420793
  0
VERTEX
  8
0
 10
99.205
 20
130.21
 30
0.0
 40
0.420793
 41
0.420793
  0
VERTEX
  8
0
 10
99.2089
 20
130.21
 30
0.0
 40
0.420793
 41
0.420793
  0
VERTEX
  8
0
 10
99.2104
 20
130.208
 30
0.0
 40
0.420793
 41
0.420793
  0
VERTEX
  8
0
 10
99.2104
 20
12.2127
 30
0.0
 40
0.420793
 41
0.420793
  0
VERTEX
  8
0
 10
99.2089
 20
12.2104
 30
0.0
 40
0.420793
 41
0.420793
  0
VERTEX
  8
0
 10
22.2119
 20
12.2104
 30
0.0
 40
0.420793
 41
0.420793
  0
VERTEX
  8
0
 10
22.2104
 20
12.2127
 30
0.0
 40
0.420793
 41
0.420793
  0
SEQEND
 8
0
  0
POLYLINE
  8
0
 62
     0
 66
     1
 10
0
 20
0
 30
0.0
 40
30.2971
 41
30.2971
  0
VERTEX
  8
0
 10
0.210394
 20
64.2242
 30
0.0
 40
0.420793
 41
0.420793
  0
VERTEX
  8
0
 10
0.210394
 20
64.2124
 30
0.0
 40
0.420793
 41
0.420793
  0
VERTEX
  8
0
 10
0.211697
 20
64.2108
 30
0.0
 40
0.420793
 41
0.420793
  0
VERTEX
  8
0
 10
0.215603
 20
64.2104
 30
0.0
 40
0.420793
 41
0.420793
  0
VERTEX
  8
0
 10
0.231336
 20
64.2104
 30
0.0
 40
0.420793
 41
0.420793
  0
SEQEND
 8
0
  0
POLYLINE
  8
0
 62
     0
 66
     1
 10
0
 20
0
 30
0.0
 40
30.2971
 41
30.2971
  0
VERTEX
  8
0
 10
2.22353
 20
130.21
 30
0.0
 40
0.420793
 41
0.420793
  0
VERTEX
  8
0
 10
12.2078
 20
130.21
 30
0.0
 40
0.420793
 41
0.420793
  0
VERTEX
  8
0
 10
12.2103
 20
130.208
 30
0.0
 40
0.420793
 41
0.420793
  0
VERTEX
  8
0
 10
12.2104
 20
130.204
 30
0.0
 40
0.420793
 41
0.420793
  0
VERTEX
  8
0
 10
12.2104
 20
78.2162
 30
0.0
 40
0.420793
 41
0.420793
  0
VERTEX
  8
0
 10
12.2102
 20
78.2124
 30
0.0
 40
0.420793
 41
0.420793
  0
VERTEX
  8
0
 10
12.2078
 20
78.2104
 30
0.0
 40
0.420793
 41
0.420793
  0
VERTEX
  8
0
 10
0.215603
 20
78.2104
 30
0.0
 40
0.420793
 41
0.420793
  0
VERTEX
  8
0
 10
0.211697
 20
78.21
 30
0.0
 40
0.420793
 41
0.420793
  0
VERTEX
  8
0
 10
0.210394
 20
78.2085
 30
0.0
 40
0.420793
 41
0.420793
  0
VERTEX
  8
0
 10
0.210394
 20
64.2242
 30
0.0
 40
0.420793
 41
0.420793
  0
SEQEND
 8
0
  0
POLYLINE
  8
0
 62
     0
 66
     1
 10
0
 20
0
 30
0.0
 40
30.2971
 41
30.2971
  0
VERTEX
  8
0
 10
0.231336
 20
64.2104
 30
0.0
 40
0.420793
 41
0.420793
  0
VERTEX
  8
0
 10
9.20785
 20
64.2104
 30
0.0
 40
0.420793
 41
0.420793
  0
VERTEX
  8
0
 10
9.21018
 20
64.2124
 30
0.0
 40
0.420793
 41
0.420793
  0
VERTEX
  8
0
 10
9.21039
 20
64.2162
 30
0.0
 40
0.420793
 41
0.420793
  0
VERTEX
  8
0
 10
9.21039
 20
64.2439
 30
0.0
 40
0.420793
 41
0.420793
  0
SEQEND
 8
0
  0
POLYLINE
  8
0
 62
     0
 66
     1
 10
0
 20
0
 30
0.0
 70
     1
 40
30.2971
 41
30.2971
  0
VERTEX
  8
0
 10
39.7104
 20
12.7127
 30
0.0
 40
0.420793
 41
0.420793
  0
VERTEX
  8
0
 10
39.7121
 20
12.7104
 30
0.0
 40
0.420793
 41
0.420793
  0
VERTEX
  8
0
 10
51.7083
 20
12.7104
 30
0.0
 40
0.420793
 41
0.420793
  0
VERTEX
  8
0
 10
51.7104
 20
12.7127
 30
0.0
 40
0.420793
 41
0.420793
  0
VERTEX
  8
0
 10
51.7104
 20
129.708
 30
0.0
 40
0.420793
 41
0.420793
  0
VERTEX
  8
0
 10
51.7083
 20
129.71
 30
0.0
 40
0.420793
 41
0.420793
  0
VERTEX
  8
0
 10
51.7044
 20
129.71
 30
0.0
 40
0.420793
 41
0.420793
  0
VERTEX
  8
0
 10
39.7161
 20
129.71
 30
0.0
 40
0.420793
 41
0.420793
  0
VERTEX
  8
0
 10
39.7121
 20
129.71
 30
0.0
 40
0.420793
 41
0.420793
  0
VERTEX
  8
0
 10
39.7104
 20
129.708
 30
0.0
 40
0.420793
 41
0.420793
  0
VERTEX
  8
0
 10
39.7104
 20
12.7127
 30
0.0
 40
0.420793
 41
0.420793
  0
SEQEND
 8
0
  0
POLYLINE
  8
0
 62
     0
 66
     1
 10
0
 20
0
 30
0.0
 70
     1
 40
30.2971
 41
30.2971
  0
VERTEX
  8
0
 10
45.6872
 20
19.7004
 30
0.0
 40
0.420793
 41
0.420793
  0
VERTEX
  8
0
 10
45.6861
 20
19.7049
 30
0.0
 40
0.420793
 41
0.420793
  0
VERTEX
  8
0
 10
45.6856
 20
19.7082
 30
0.0
 40
0.420793
 41
0.420793
  0
VERTEX
  8
0
 10
45.6856
 20
19.7126
 30
0.0
 40
0.420793
 41
0.420793
  0
VERTEX
  8
0
 10
45.6862
 20
19.7171
 30
0.0
 40
0.420793
 41
0.420793
  0
VERTEX
  8
0
 10
45.6875
 20
19.7204
 30
0.0
 40
0.420793
 41
0.420793
  0
VERTEX
  8
0
 10
45.6885
 20
19.7226
 30
0.0
 40
0.420793
 41
0.420793
  0
VERTEX
  8
0
 10
45.6897
 20
19.7249
 30
0.0
 40
0.420793
 41
0.420793
  0
VERTEX
  8
0
 10
45.6925
 20
19.7282
 30
0.0
 40
0.420793
 41
0.420793
  0
VERTEX
  8
0
 10
45.6931
 20
19.7282
 30
0.0
 40
0.420793
 41
0.420793
  0
VERTEX
  8
0
 10
45.6964
 20
19.7315
 30
0.0
 40
0.420793
 41
0.420793
  0
VERTEX
  8
0
 10
45.6985
 20
19.7326
 30
0.0
 40
0.420793
 41
0.420793
  0
VERTEX
  8
0
 10
45.7004
 20
19.7337
 30
0.0
 40
0.420793
 41
0.420793
  0
VERTEX
  8
0
 10
45.7043
 20
19.7349
 30
0.0
 40
0.420793
 41
0.420793
  0
VERTEX
  8
0
 10
45.7163
 20
19.7349
 30
0.0
 40
0.420793
 41
0.420793
  0
VERTEX
  8
0
 10
45.7201
 20
19.7337
 30
0.0
 40
0.420793
 41
0.420793
  0
VERTEX
  8
0
 10
45.7224
 20
19.7326
 30
0.0
 40
0.420793
 41
0.420793
  0
VERTEX
  8
0
 10
45.7239
 20
19.7315
 30
0.0
 40
0.420793
 41
0.420793
  0
VERTEX
  8
0
 10
45.7278
 20
19.7282
 30
0.0
 40
0.420793
 41
0.420793
  0
VERTEX
  8
0
 10
45.7279
 20
19.7282
 30
0.0
 40
0.420793
 41
0.420793
  0
VERTEX
  8
0
 10
45.7311
 20
19.7249
 30
0.0
 40
0.420793
 41
0.420793
  0
VERTEX
  8
0
 10
45.7319
 20
19.7226
 30
0.0
 40
0.420793
 41
0.420793
  0
VERTEX
  8
0
 10
45.7333
 20
19.7204
 30
0.0
 40
0.420793
 41
0.420793
  0
VERTEX
  8
0
 10
45.7346
 20
19.7171
 30
0.0
 40
0.420793
 41
0.420793
  0
VERTEX
  8
0
 10
45.7353
 20
19.7126
 30
0.0
 40
0.420793
 41
0.420793
  0
VERTEX
  8
0
 10
45.7353
 20
19.7082
 30
0.0
 40
0.420793
 41
0.420793
  0
VERTEX
  8
0
 10
45.7347
 20
19.7049
 30
0.0
 40
0.420793
 41
0.420793
  0
VERTEX
  8
0
 10
45.7335
 20
19.7004
 30
0.0
 40
0.420793
 41
0.420793
  0
VERTEX
  8
0
 10
45.7319
 20
19.6982
 30
0.0
 40
0.420793
 41
0.420793
  0
VERTEX
  8
0
 10
45.7314
 20
19.6971
 30
0.0
 40
0.420793
 41
0.420793
  0
VERTEX
  8
0
 10
45.7283
 20
19.6926
 30
0.0
 40
0.420793
 41
0.420793
  0
VERTEX
  8
0
 10
45.7279
 20
19.6926
 30
0.0
 40
0.420793
 41
0.420793
  0
VERTEX
  8
0
 10
45.7239
 20
19.6893
 30
0.0
 40
0.420793
 41
0.420793
  0
VERTEX
  8
0
 10
45.7233
 20
19.6893
 30
0.0
 40
0.420793
 41
0.420793
  0
VERTEX
  8
0
 10
45.7201
 20
19.6871
 30
0.0
 40
0.420793
 41
0.420793
  0
VERTEX
  8
0
 10
45.7163
 20
19.686
 30
0.0
 40
0.420793
 41
0.420793
  0
VERTEX
  8
0
 10
45.7043
 20
19.686
 30
0.0
 40
0.420793
 41
0.420793
  0
VERTEX
  8
0
 10
45.7004
 20
19.6871
 30
0.0
 40
0.420793
 41
0.420793
  0
VERTEX
  8
0
 10
45.6976
 20
19.6893
 30
0.0
 40
0.420793
 41
0.420793
  0
VERTEX
  8
0
 10
45.6964
 20
19.6893
 30
0.0
 40
0.420793
 41
0.420793
  0
VERTEX
  8
0
 10
45.6925
 20
19.6926
 30
0.0
 40
0.420793
 41
0.420793
  0
VERTEX
  8
0
 10
45.6894
 20
19.6971
 30
0.0
 40
0.420793
 41
0.420793
  0
VERTEX
  8
0
 10
45.6886
 20
19.6982
 30
0.0
 40
0.420793
 41
0.420793
  0
VERTEX
  8
0
 10
45.6872
 20
19.7004
 30
0.0
 40
0.420793
 41
0.420793
  0
SEQEND
 8
0
  0
POLYLINE
  8
0
 62
     0
 66
     1
 10
0
 20
0
 30
0.0
 40
30.2971
 41
30.2971
  0
VERTEX
  8
0
 10
2.21957
 20
142.211
 30
0.0
 40
0.420793
 41
0.420793
  0
VERTEX
  8
0
 10
2.2156
 20
142.211
 30
0.0
 40
0.420793
 41
0.420793
  0
VERTEX
  8
0
 10
2.21169
 20
142.21
 30
0.0
 40
0.420793
 41
0.420793
  0
VERTEX
  8
0
 10
2.21039
 20
142.208
 30
0.0
 40
0.420793
 41
0.420793
  0
VERTEX
  8
0
 10
2.21039
 20
130.212
 30
0.0
 40
0.420793
 41
0.420793
  0
VERTEX
  8
0
 10
2.21169
 20
130.211
 30
0.0
 40
0.420793
 41
0.420793
  0
VERTEX
  8
0
 10
2.2156
 20
130.21
 30
0.0
 40
0.420793
 41
0.420793
  0
VERTEX
  8
0
 10
2.22353
 20
130.21
 30
0.0
 40
0.420793
 41
0.420793
  0
SEQEND
 8
0
  0
POLYLINE
  8
0
 62
     0
 66
     1
 10
0
 20
0
 30
0.0
 40
30.2971
 41
30.2971
  0
VERTEX
  8
0
 10
2.27864
 20
142.211
 30
0.0
 40
0.420793
 41
0.420793
  0
VERTEX
  8
0
 10
2.21957
 20
142.211
 30
0.0
 40
0.420793
 41
0.420793
  0
SEQEND
 8
0
  0
POLYLINE
  8
0
 62
     0
 66
     1
 10
0
 20
0
 30
0.0
 40
30.2971
 41
30.2971
  0
VERTEX
  8
0
 10
2.34554
 20
142.211
 30
0.0
 40
0.420793
 41
0.420793
  0
VERTEX
  8
0
 10
2.27864
 20
142.211
 30
0.0
 40
0.420793
 41
0.420793
  0
SEQEND
 8
0
  0
POLYLINE
  8
0
 62
     0
 66
     1
 10
0
 20
0
 30
0.0
 40
30.2971
 41
30.2971
  0
VERTEX
  8
0
 10
112.229
 20
64.2104
 30
0.0
 40
0.420793
 41
0.420793
  0
VERTEX
  8
0
 10
121.205
 20
64.2104
 30
0.0
 40
0.420793
 41
0.420793
  0
VERTEX
  8
0
 10
121.209
 20
64.2108
 30
0.0
 40
0.420793
 41
0.420793
  0
VERTEX
  8
0
 10
121.21
 20
64.2124
 30
0.0
 40
0.420793
 41
0.420793
  0
VERTEX
  8
0
 10
121.21
 20
78.2085
 30
0.0
 40
0.420793
 41
0.420793
  0
VERTEX
  8
0
 10
121.209
 20
78.21
 30
0.0
 40
0.420793
 41
0.420793
  0
VERTEX
  8
0
 10
121.205
 20
78.2104
 30
0.0
 40
0.420793
 41
0.420793
  0
VERTEX
  8
0
 10
109.213
 20
78.2104
 30
0.0
 40
0.420793
 41
0.420793
  0
VERTEX
  8
0
 10
109.211
 20
78.2124
 30
0.0
 40
0.420793
 41
0.420793
  0
VERTEX
  8
0
 10
109.21
 20
78.2162
 30
0.0
 40
0.420793
 41
0.420793
  0
VERTEX
  8
0
 10
109.21
 20
130.204
 30
0.0
 40
0.420793
 41
0.420793
  0
VERTEX
  8
0
 10
109.211
 20
130.208
 30
0.0
 40
0.420793
 41
0.420793
  0
VERTEX
  8
0
 10
109.213
 20
130.21
 30
0.0
 40
0.420793
 41
0.420793
  0
VERTEX
  8
0
 10
119.205
 20
130.21
 30
0.0
 40
0.420793
 41
0.420793
  0
VERTEX
  8
0
 10
119.209
 20
130.211
 30
0.0
 40
0.420793
 41
0.420793
  0
VERTEX
  8
0
 10
119.211
 20
130.212
 30
0.0
 40
0.420793
 41
0.420793
  0
VERTEX
  8
0
 10
119.211
 20
142.208
 30
0.0
 40
0.420793
 41
0.420793
  0
VERTEX
  8
0
 10
119.209
 20
142.21
 30
0.0
 40
0.420793
 41
0.420793
  0
VERTEX
  8
0
 10
119.205
 20
142.211
 30
0.0
 40
0.420793
 41
0.420793
  0
VERTEX
  8
0
 10
2.34554
 20
142.211
 30
0.0
 40
0.420793
 41
0.420793
  0
SEQEND
 8
0
  0
POLYLINE
  8
0
 62
     0
 66
     1
 10
0
 20
0
 30
0.0
 70
     1
 40
30.2971
 41
30.2971
  0
VERTEX
  8
0
 10
9.19863
 20
136.188
 30
0.0
 40
0.420793
 41
0.420793
  0
VERTEX
  8
0
 10
9.19607
 20
136.19
 30
0.0
 40
0.420793
 41
0.420793
  0
VERTEX
  8
0
 10
9.19319
 20
136.192
 30
0.0
 40
0.420793
 41
0.420793
  0
VERTEX
  8
0
 10
9.19206
 20
136.193
 30
0.0
 40
0.420793
 41
0.420793
  0
VERTEX
  8
0
 10
9.18989
 20
136.196
 30
0.0
 40
0.420793
 41
0.420793
  0
VERTEX
  8
0
 10
9.18821
 20
136.199
 30
0.0
 40
0.420793
 41
0.420793
  0
VERTEX
  8
0
 10
9.18767
 20
136.2
 30
0.0
 40
0.420793
 41
0.420793
  0
VERTEX
  8
0
 10
9.18619
 20
136.204
 30
0.0
 40
0.420793
 41
0.420793
  0
VERTEX
  8
0
 10
9.18554
 20
136.208
 30
0.0
 40
0.420793
 41
0.420793
  0
VERTEX
  8
0
 10
9.18544
 20
136.212
 30
0.0
 40
0.420793
 41
0.420793
  0
VERTEX
  8
0
 10
9.18608
 20
136.216
 30
0.0
 40
0.420793
 41
0.420793
  0
VERTEX
  8
0
 10
9.18728
 20
136.22
 30
0.0
 40
0.420793
 41
0.420793
  0
VERTEX
  8
0
 10
9.18821
 20
136.222
 30
0.0
 40
0.420793
 41
0.420793
  0
VERTEX
  8
0
 10
9.1894
 20
136.224
 30
0.0
 40
0.420793
 41
0.420793
  0
VERTEX
  8
0
 10
9.19206
 20
136.227
 30
0.0
 40
0.420793
 41
0.420793
  0
VERTEX
  8
0
 10
9.19254
 20
136.228
 30
0.0
 40
0.420793
 41
0.420793
  0
VERTEX
  8
0
 10
9.19607
 20
136.231
 30
0.0
 40
0.420793
 41
0.420793
  0
VERTEX
  8
0
 10
9.19743
 20
136.232
 30
0.0
 40
0.420793
 41
0.420793
  0
VERTEX
  8
0
 10
9.19997
 20
136.233
 30
0.0
 40
0.420793
 41
0.420793
  0
VERTEX
  8
0
 10
9.20389
 20
136.235
 30
0.0
 40
0.420793
 41
0.420793
  0
VERTEX
  8
0
 10
9.20785
 20
136.235
 30
0.0
 40
0.420793
 41
0.420793
  0
VERTEX
  8
0
 10
9.21175
 20
136.235
 30
0.0
 40
0.420793
 41
0.420793
  0
VERTEX
  8
0
 10
9.21576
 20
136.235
 30
0.0
 40
0.420793
 41
0.420793
  0
VERTEX
  8
0
 10
9.21961
 20
136.234
 30
0.0
 40
0.420793
 41
0.420793
  0
VERTEX
  8
0
 10
9.22364
 20
136.232
 30
0.0
 40
0.420793
 41
0.420793
  0
VERTEX
  8
0
 10
9.22754
 20
136.229
 30
0.0
 40
0.420793
 41
0.420793
  0
VERTEX
  8
0
 10
9.22831
 20
136.228
 30
0.0
 40
0.420793
 41
0.420793
  0
VERTEX
  8
0
 10
9.23139
 20
136.224
 30
0.0
 40
0.420793
 41
0.420793
  0
VERTEX
  8
0
 10
9.23156
 20
136.224
 30
0.0
 40
0.420793
 41
0.420793
  0
VERTEX
  8
0
 10
9.2335
 20
136.22
 30
0.0
 40
0.420793
 41
0.420793
  0
VERTEX
  8
0
 10
9.23475
 20
136.216
 30
0.0
 40
0.420793
 41
0.420793
  0
VERTEX
  8
0
 10
9.2354
 20
136.212
 30
0.0
 40
0.420793
 41
0.420793
  0
VERTEX
  8
0
 10
9.23529
 20
136.208
 30
0.0
 40
0.420793
 41
0.420793
  0
VERTEX
  8
0
 10
9.23465
 20
136.204
 30
0.0
 40
0.420793
 41
0.420793
  0
VERTEX
  8
0
 10
9.23318
 20
136.2
 30
0.0
 40
0.420793
 41
0.420793
  0
VERTEX
  8
0
 10
9.23139
 20
136.197
 30
0.0
 40
0.420793
 41
0.420793
  0
VERTEX
  8
0
 10
9.23107
 20
136.196
 30
0.0
 40
0.420793
 41
0.420793
  0
VERTEX
  8
0
 10
9.22775
 20
136.192
 30
0.0
 40
0.420793
 41
0.420793
  0
VERTEX
  8
0
 10
9.22754
 20
136.192
 30
0.0
 40
0.420793
 41
0.420793
  0
VERTEX
  8
0
 10
9.22364
 20
136.189
 30
0.0
 40
0.420793
 41
0.420793
  0
VERTEX
  8
0
 10
9.22217
 20
136.188
 30
0.0
 40
0.420793
 41
0.420793
  0
VERTEX
  8
0
 10
9.21961
 20
136.187
 30
0.0
 40
0.420793
 41
0.420793
  0
VERTEX
  8
0
 10
9.21576
 20
136.186
 30
0.0
 40
0.420793
 41
0.420793
  0
VERTEX
  8
0
 10
9.21175
 20
136.185
 30
0.0
 40
0.420793
 41
0.420793
  0
VERTEX
  8
0
 10
9.20785
 20
136.186
 30
0.0
 40
0.420793
 41
0.420793
  0
VERTEX
  8
0
 10
9.20389
 20
136.186
 30
0.0
 40
0.420793
 41
0.420793
  0
VERTEX
  8
0
 10
9.19997
 20
136.188
 30
0.0
 40
0.420793
 41
0.420793
  0
VERTEX
  8
0
 10
9.19863
 20
136.188
 30
0.0
 40
0.420793
 41
0.420793
  0
SEQEND
 8
0
  0
POLYLINE
  8
0
 62
     0
 66
     1
 10
0
 20
0
 30
0.0
 70
     1
 40
30.2971
 41
30.2971
  0
VERTEX
  8
0
 10
45.6875
 20
122.7
 30
0.0
 40
0.420793
 41
0.420793
  0
VERTEX
  8
0
 10
45.6862
 20
122.704
 30
0.0
 40
0.420793
 41
0.420793
  0
VERTEX
  8
0
 10
45.6856
 20
122.708
 30
0.0
 40
0.420793
 41
0.420793
  0
VERTEX
  8
0
 10
45.6856
 20
122.712
 30
0.0
 40
0.420793
 41
0.420793
  0
VERTEX
  8
0
 10
45.6861
 20
122.716
 30
0.0
 40
0.420793
 41
0.420793
  0
VERTEX
  8
0
 10
45.6872
 20
122.72
 30
0.0
 40
0.420793
 41
0.420793
  0
VERTEX
  8
0
 10
45.6885
 20
122.722
 30
0.0
 40
0.420793
 41
0.420793
  0
VERTEX
  8
0
 10
45.6894
 20
122.724
 30
0.0
 40
0.420793
 41
0.420793
  0
VERTEX
  8
0
 10
45.6925
 20
122.728
 30
0.0
 40
0.420793
 41
0.420793
  0
VERTEX
  8
0
 10
45.6964
 20
122.731
 30
0.0
 40
0.420793
 41
0.420793
  0
VERTEX
  8
0
 10
45.6975
 20
122.732
 30
0.0
 40
0.420793
 41
0.420793
  0
VERTEX
  8
0
 10
45.7004
 20
122.733
 30
0.0
 40
0.420793
 41
0.420793
  0
VERTEX
  8
0
 10
45.7043
 20
122.735
 30
0.0
 40
0.420793
 41
0.420793
  0
VERTEX
  8
0
 10
45.7083
 20
122.735
 30
0.0
 40
0.420793
 41
0.420793
  0
VERTEX
  8
0
 10
45.7122
 20
122.735
 30
0.0
 40
0.420793
 41
0.420793
  0
VERTEX
  8
0
 10
45.7163
 20
122.735
 30
0.0
 40
0.420793
 41
0.420793
  0
VERTEX
  8
0
 10
45.7201
 20
122.733
 30
0.0
 40
0.420793
 41
0.420793
  0
VERTEX
  8
0
 10
45.7233
 20
122.732
 30
0.0
 40
0.420793
 41
0.420793
  0
VERTEX
  8
0
 10
45.7239
 20
122.731
 30
0.0
 40
0.420793
 41
0.420793
  0
VERTEX
  8
0
 10
45.7279
 20
122.728
 30
0.0
 40
0.420793
 41
0.420793
  0
VERTEX
  8
0
 10
45.7283
 20
122.728
 30
0.0
 40
0.420793
 41
0.420793
  0
VERTEX
  8
0
 10
45.7314
 20
122.724
 30
0.0
 40
0.420793
 41
0.420793
  0
VERTEX
  8
0
 10
45.7319
 20
122.723
 30
0.0
 40
0.420793
 41
0.420793
  0
VERTEX
  8
0
 10
45.7335
 20
122.72
 30
0.0
 40
0.420793
 41
0.420793
  0
VERTEX
  8
0
 10
45.7347
 20
122.716
 30
0.0
 40
0.420793
 41
0.420793
  0
VERTEX
  8
0
 10
45.7353
 20
122.712
 30
0.0
 40
0.420793
 41
0.420793
  0
VERTEX
  8
0
 10
45.7353
 20
122.708
 30
0.0
 40
0.420793
 41
0.420793
  0
VERTEX
  8
0
 10
45.7346
 20
122.704
 30
0.0
 40
0.420793
 41
0.420793
  0
VERTEX
  8
0
 10
45.7333
 20
122.7
 30
0.0
 40
0.420793
 41
0.420793
  0
VERTEX
  8
0
 10
45.7319
 20
122.698
 30
0.0
 40
0.420793
 41
0.420793
  0
VERTEX
  8
0
 10
45.7311
 20
122.696
 30
0.0
 40
0.420793
 41
0.420793
  0
VERTEX
  8
0
 10
45.7279
 20
122.693
 30
0.0
 40
0.420793
 41
0.420793
  0
VERTEX
  8
0
 10
45.7278
 20
122.693
 30
0.0
 40
0.420793
 41
0.420793
  0
VERTEX
  8
0
 10
45.7239
 20
122.689
 30
0.0
 40
0.420793
 41
0.420793
  0
VERTEX
  8
0
 10
45.7224
 20
122.688
 30
0.0
 40
0.420793
 41
0.420793
  0
VERTEX
  8
0
 10
45.7201
 20
122.688
 30
0.0
 40
0.420793
 41
0.420793
  0
VERTEX
  8
0
 10
45.7163
 20
122.686
 30
0.0
 40
0.420793
 41
0.420793
  0
VERTEX
  8
0
 10
45.7122
 20
122.686
 30
0.0
 40
0.420793
 41
0.420793
  0
VERTEX
  8
0
 10
45.7083
 20
122.686
 30
0.0
 40
0.420793
 41
0.420793
  0
VERTEX
  8
0
 10
45.7043
 20
122.686
 30
0.0
 40
0.420793
 41
0.420793
  0
VERTEX
  8
0
 10
45.7004
 20
122.688
 30
0.0
 40
0.420793
 41
0.420793
  0
VERTEX
  8
0
 10
45.6985
 20
122.688
 30
0.0
 40
0.420793
 41
0.420793
  0
VERTEX
  8
0
 10
45.6964
 20
122.69
 30
0.0
 40
0.420793
 41
0.420793
  0
VERTEX
  8
0
 10
45.6931
 20
122.693
 30
0.0
 40
0.420793
 41
0.420793
  0
VERTEX
  8
0
 10
45.6925
 20
122.693
 30
0.0
 40
0.420793
 41
0.420793
  0
VERTEX
  8
0
 10
45.6897
 20
122.696
 30
0.0
 40
0.420793
 41
0.420793
  0
VERTEX
  8
0
 10
45.6885
 20
122.698
 30
0.0
 40
0.420793
 41
0.420793
  0
VERTEX
  8
0
 10
45.6875
 20
122.7
 30
0.0
 40
0.420793
 41
0.420793
  0
SEQEND
 8
0
  0
POLYLINE
  8
0
 62
     0
 66
     1
 10
0
 20
0
 30
0.0
 70
     1
 40
30.2971
 41
30.2971
  0
VERTEX
  8
0
 10
69.7104
 20
12.7127
 30
0.0
 40
0.420793
 41
0.420793
  0
VERTEX
  8
0
 10
69.7125
 20
12.7104
 30
0.0
 40
0.420793
 41
0.420793
  0
VERTEX
  8
0
 10
81.7086
 20
12.7104
 30
0.0
 40
0.420793
 41
0.420793
  0
VERTEX
  8
0
 10
81.7104
 20
12.7127
 30
0.0
 40
0.420793
 41
0.420793
  0
VERTEX
  8
0
 10
81.7104
 20
129.708
 30
0.0
 40
0.420793
 41
0.420793
  0
VERTEX
  8
0
 10
81.7086
 20
129.71
 30
0.0
 40
0.420793
 41
0.420793
  0
VERTEX
  8
0
 10
81.7047
 20
129.71
 30
0.0
 40
0.420793
 41
0.420793
  0
VERTEX
  8
0
 10
69.7164
 20
129.71
 30
0.0
 40
0.420793
 41
0.420793
  0
VERTEX
  8
0
 10
69.7125
 20
129.71
 30
0.0
 40
0.420793
 41
0.420793
  0
VERTEX
  8
0
 10
69.7104
 20
129.708
 30
0.0
 40
0.420793
 41
0.420793
  0
VERTEX
  8
0
 10
69.7104
 20
12.7127
 30
0.0
 40
0.420793
 41
0.420793
  0
SEQEND
 8
0
  0
POLYLINE
  8
0
 62
     0
 66
     1
 10
0
 20
0
 30
0.0
 70
     1
 40
30.2971
 41
30.2971
  0
VERTEX
  8
0
 10
75.6872
 20
19.7004
 30
0.0
 40
0.420793
 41
0.420793
  0
VERTEX
  8
0
 10
75.6861
 20
19.7049
 30
0.0
 40
0.420793
 41
0.420793
  0
VERTEX
  8
0
 10
75.6856
 20
19.7082
 30
0.0
 40
0.420793
 41
0.420793
  0
VERTEX
  8
0
 10
75.6856
 20
19.7126
 30
0.0
 40
0.420793
 41
0.420793
  0
VERTEX
  8
0
 10
75.6863
 20
19.7171
 30
0.0
 40
0.420793
 41
0.420793
  0
VERTEX
  8
0
 10
75.6875
 20
19.7204
 30
0.0
 40
0.420793
 41
0.420793
  0
VERTEX
  8
0
 10
75.689
 20
19.7226
 30
0.0
 40
0.420793
 41
0.420793
  0
VERTEX
  8
0
 10
75.6897
 20
19.7249
 30
0.0
 40
0.420793
 41
0.420793
  0
VERTEX
  8
0
 10
75.6929
 20
19.7282
 30
0.0
 40
0.420793
 41
0.420793
  0
VERTEX
  8
0
 10
75.6931
 20
19.7282
 30
0.0
 40
0.420793
 41
0.420793
  0
VERTEX
  8
0
 10
75.6969
 20
19.7315
 30
0.0
 40
0.420793
 41
0.420793
  0
VERTEX
  8
0
 10
75.6985
 20
19.7326
 30
0.0
 40
0.420793
 41
0.420793
  0
VERTEX
  8
0
 10
75.7007
 20
19.7337
 30
0.0
 40
0.420793
 41
0.420793
  0
VERTEX
  8
0
 10
75.7046
 20
19.7349
 30
0.0
 40
0.420793
 41
0.420793
  0
VERTEX
  8
0
 10
75.7165
 20
19.7349
 30
0.0
 40
0.420793
 41
0.420793
  0
VERTEX
  8
0
 10
75.7204
 20
19.7337
 30
0.0
 40
0.420793
 41
0.420793
  0
VERTEX
  8
0
 10
75.7224
 20
19.7326
 30
0.0
 40
0.420793
 41
0.420793
  0
VERTEX
  8
0
 10
75.7244
 20
19.7315
 30
0.0
 40
0.420793
 41
0.420793
  0
VERTEX
  8
0
 10
75.7278
 20
19.7282
 30
0.0
 40
0.420793
 41
0.420793
  0
VERTEX
  8
0
 10
75.7283
 20
19.7282
 30
0.0
 40
0.420793
 41
0.420793
  0
VERTEX
  8
0
 10
75.7311
 20
19.7249
 30
0.0
 40
0.420793
 41
0.420793
  0
VERTEX
  8
0
 10
75.7322
 20
19.7226
 30
0.0
 40
0.420793
 41
0.420793
  0
VERTEX
  8
0
 10
75.7333
 20
19.7204
 30
0.0
 40
0.420793
 41
0.420793
  0
VERTEX
  8
0
 10
75.7346
 20
19.7171
 30
0.0
 40
0.420793
 41
0.420793
  0
VERTEX
  8
0
 10
75.7353
 20
19.7126
 30
0.0
 40
0.420793
 41
0.420793
  0
VERTEX
  8
0
 10
75.7353
 20
19.7082
 30
0.0
 40
0.420793
 41
0.420793
  0
VERTEX
  8
0
 10
75.7347
 20
19.7049
 30
0.0
 40
0.420793
 41
0.420793
  0
VERTEX
  8
0
 10
75.7335
 20
19.7004
 30
0.0
 40
0.420793
 41
0.420793
  0
VERTEX
  8
0
 10
75.7322
 20
19.6982
 30
0.0
 40
0.420793
 41
0.420793
  0
VERTEX
  8
0
 10
75.7314
 20
19.6971
 30
0.0
 40
0.420793
 41
0.420793
  0
VERTEX
  8
0
 10
75.7283
 20
19.6926
 30
0.0
 40
0.420793
 41
0.420793
  0
VERTEX
  8
0
 10
75.7244
 20
19.6893
 30
0.0
 40
0.420793
 41
0.420793
  0
VERTEX
  8
0
 10
75.7232
 20
19.6893
 30
0.0
 40
0.420793
 41
0.420793
  0
VERTEX
  8
0
 10
75.7204
 20
19.6871
 30
0.0
 40
0.420793
 41
0.420793
  0
VERTEX
  8
0
 10
75.7165
 20
19.686
 30
0.0
 40
0.420793
 41
0.420793
  0
VERTEX
  8
0
 10
75.7046
 20
19.686
 30
0.0
 40
0.420793
 41
0.420793
  0
VERTEX
  8
0
 10
75.7007
 20
19.6871
 30
0.0
 40
0.420793
 41
0.420793
  0
VERTEX
  8
0
 10
75.6975
 20
19.6893
 30
0.0
 40
0.420793
 41
0.420793
  0
VERTEX
  8
0
 10
75.6969
 20
19.6893
 30
0.0
 40
0.420793
 41
0.420793
  0
VERTEX
  8
0
 10
75.6929
 20
19.6926
 30
0.0
 40
0.420793
 41
0.420793
  0
VERTEX
  8
0
 10
75.6925
 20
19.6926
 30
0.0
 40
0.420793
 41
0.420793
  0
VERTEX
  8
0
 10
75.6894
 20
19.6971
 30
0.0
 40
0.420793
 41
0.420793
  0
VERTEX
  8
0
 10
75.689
 20
19.6982
 30
0.0
 40
0.420793
 41
0.420793
  0
VERTEX
  8
0
 10
75.6872
 20
19.7004
 30
0.0
 40
0.420793
 41
0.420793
  0
SEQEND
 8
0
  0
POLYLINE
  8
0
 62
     0
 66
     1
 10
0
 20
0
 30
0.0
 40
30.2971
 41
30.2971
  0
VERTEX
  8
0
 10
109.221
 20
12.2104
 30
0.0
 40
0.420793
 41
0.420793
  0
VERTEX
  8
0
 10
109.213
 20
12.2104
 30
0.0
 40
0.420793
 41
0.420793
  0
VERTEX
  8
0
 10
109.211
 20
12.2127
 30
0.0
 40
0.420793
 41
0.420793
  0
VERTEX
  8
0
 10
109.21
 20
12.2171
 30
0.0
 40
0.420793
 41
0.420793
  0
VERTEX
  8
0
 10
109.21
 20
73.2046
 30
0.0
 40
0.420793
 41
0.420793
  0
VERTEX
  8
0
 10
109.211
 20
73.2085
 30
0.0
 40
0.420793
 41
0.420793
  0
VERTEX
  8
0
 10
109.213
 20
73.2104
 30
0.0
 40
0.420793
 41
0.420793
  0
VERTEX
  8
0
 10
117.205
 20
73.2104
 30
0.0
 40
0.420793
 41
0.420793
  0
VERTEX
  8
0
 10
117.209
 20
73.21
 30
0.0
 40
0.420793
 41
0.420793
  0
VERTEX
  8
0
 10
117.211
 20
73.2085
 30
0.0
 40
0.420793
 41
0.420793
  0
VERTEX
  8
0
 10
117.211
 20
69.2242
 30
0.0
 40
0.420793
 41
0.420793
  0
SEQEND
 8
0
  0
POLYLINE
  8
0
 62
     0
 66
     1
 10
0
 20
0
 30
0.0
 70
     1
 40
30.2971
 41
30.2971
  0
VERTEX
  8
0
 10
112.188
 20
6.20042
 30
0.0
 40
0.420793
 41
0.420793
  0
VERTEX
  8
0
 10
112.187
 20
6.20486
 30
0.0
 40
0.420793
 41
0.420793
  0
VERTEX
  8
0
 10
112.185
 20
6.20931
 30
0.0
 40
0.420793
 41
0.420793
  0
VERTEX
  8
0
 10
112.185
 20
6.21267
 30
0.0
 40
0.420793
 41
0.420793
  0
VERTEX
  8
0
 10
112.187
 20
6.21707
 30
0.0
 40
0.420793
 41
0.420793
  0
VERTEX
  8
0
 10
112.188
 20
6.22043
 30
0.0
 40
0.420793
 41
0.420793
  0
VERTEX
  8
0
 10
112.19
 20
6.22374
 30
0.0
 40
0.420793
 41
0.420793
  0
VERTEX
  8
0
 10
112.19
 20
6.22488
 30
0.0
 40
0.420793
 41
0.420793
  0
VERTEX
  8
0
 10
112.193
 20
6.22819
 30
0.0
 40
0.420793
 41
0.420793
  0
VERTEX
  8
0
 10
112.198
 20
6.23156
 30
0.0
 40
0.420793
 41
0.420793
  0
VERTEX
  8
0
 10
112.199
 20
6.23264
 30
0.0
 40
0.420793
 41
0.420793
  0
VERTEX
  8
0
 10
112.201
 20
6.23378
 30
0.0
 40
0.420793
 41
0.420793
  0
VERTEX
  8
0
 10
112.205
 20
6.23486
 30
0.0
 40
0.420793
 41
0.420793
  0
VERTEX
  8
0
 10
112.217
 20
6.23486
 30
0.0
 40
0.420793
 41
0.420793
  0
VERTEX
  8
0
 10
112.221
 20
6.23264
 30
0.0
 40
0.420793
 41
0.420793
  0
VERTEX
  8
0
 10
112.222
 20
6.23264
 30
0.0
 40
0.420793
 41
0.420793
  0
VERTEX
  8
0
 10
112.224
 20
6.23042
 30
0.0
 40
0.420793
 41
0.420793
  0
VERTEX
  8
0
 10
112.228
 20
6.22819
 30
0.0
 40
0.420793
 41
0.420793
  0
VERTEX
  8
0
 10
112.231
 20
6.22488
 30
0.0
 40
0.420793
 41
0.420793
  0
VERTEX
  8
0
 10
112.233
 20
6.22151
 30
0.0
 40
0.420793
 41
0.420793
  0
VERTEX
  8
0
 10
112.233
 20
6.22043
 30
0.0
 40
0.420793
 41
0.420793
  0
VERTEX
  8
0
 10
112.234
 20
6.21707
 30
0.0
 40
0.420793
 41
0.420793
  0
VERTEX
  8
0
 10
112.235
 20
6.21267
 30
0.0
 40
0.420793
 41
0.420793
  0
VERTEX
  8
0
 10
112.235
 20
6.20931
 30
0.0
 40
0.420793
 41
0.420793
  0
VERTEX
  8
0
 10
112.234
 20
6.20486
 30
0.0
 40
0.420793
 41
0.420793
  0
VERTEX
  8
0
 10
112.233
 20
6.20042
 30
0.0
 40
0.420793
 41
0.420793
  0
VERTEX
  8
0
 10
112.233
 20
6.19933
 30
0.0
 40
0.420793
 41
0.420793
  0
VERTEX
  8
0
 10
112.231
 20
6.1971
 30
0.0
 40
0.420793
 41
0.420793
  0
VERTEX
  8
0
 10
112.229
 20
6.19374
 30
0.0
 40
0.420793
 41
0.420793
  0
VERTEX
  8
0
 10
112.229
 20
6.19265
 30
0.0
 40
0.420793
 41
0.420793
  0
VERTEX
  8
0
 10
112.224
 20
6.19043
 30
0.0
 40
0.420793
 41
0.420793
  0
VERTEX
  8
0
 10
112.223
 20
6.18929
 30
0.0
 40
0.420793
 41
0.420793
  0
VERTEX
  8
0
 10
112.221
 20
6.18821
 30
0.0
 40
0.420793
 41
0.420793
  0
VERTEX
  8
0
 10
112.217
 20
6.18599
 30
0.0
 40
0.420793
 41
0.420793
  0
VERTEX
  8
0
 10
112.205
 20
6.18599
 30
0.0
 40
0.420793
 41
0.420793
  0
VERTEX
  8
0
 10
112.201
 20
6.18712
 30
0.0
 40
0.420793
 41
0.420793
  0
VERTEX
  8
0
 10
112.198
 20
6.18929
 30
0.0
 40
0.420793
 41
0.420793
  0
VERTEX
  8
0
 10
112.193
 20
6.19265
 30
0.0
 40
0.420793
 41
0.420793
  0
VERTEX
  8
0
 10
112.192
 20
6.19265
 30
0.0
 40
0.420793
 41
0.420793
  0
VERTEX
  8
0
 10
112.19
 20
6.1971
 30
0.0
 40
0.420793
 41
0.420793
  0
VERTEX
  8
0
 10
112.188
 20
6.20042
 30
0.0
 40
0.420793
 41
0.420793
  0
SEQEND
 8
0
  0
POLYLINE
  8
0
 62
     0
 66
     1
 10
0
 20
0
 30
0.0
 40
30.2971
 41
30.2971
  0
VERTEX
  8
0
 10
112.221
 20
69.2104
 30
0.0
 40
0.420793
 41
0.420793
  0
VERTEX
  8
0
 10
112.213
 20
69.2104
 30
0.0
 40
0.420793
 41
0.420793
  0
VERTEX
  8
0
 10
112.211
 20
69.2085
 30
0.0
 40
0.420793
 41
0.420793
  0
VERTEX
  8
0
 10
112.21
 20
69.2046
 30
0.0
 40
0.420793
 41
0.420793
  0
VERTEX
  8
0
 10
112.21
 20
64.2162
 30
0.0
 40
0.420793
 41
0.420793
  0
VERTEX
  8
0
 10
112.211
 20
64.2124
 30
0.0
 40
0.420793
 41
0.420793
  0
VERTEX
  8
0
 10
112.213
 20
64.2104
 30
0.0
 40
0.420793
 41
0.420793
  0
VERTEX
  8
0
 10
112.229
 20
64.2104
 30
0.0
 40
0.420793
 41
0.420793
  0
SEQEND
 8
0
  0
POLYLINE
  8
0
 62
     0
 66
     1
 10
0
 20
0
 30
0.0
 40
30.2971
 41
30.2971
  0
VERTEX
  8
0
 10
117.211
 20
69.2242
 30
0.0
 40
0.420793
 41
0.420793
  0
VERTEX
  8
0
 10
117.211
 20
69.2124
 30
0.0
 40
0.420793
 41
0.420793
  0
VERTEX
  8
0
 10
117.209
 20
69.2108
 30
0.0
 40
0.420793
 41
0.420793
  0
VERTEX
  8
0
 10
117.205
 20
69.2104
 30
0.0
 40
0.420793
 41
0.420793
  0
VERTEX
  8
0
 10
112.221
 20
69.2104
 30
0.0
 40
0.420793
 41
0.420793
  0
SEQEND
 8
0
  0
POLYLINE
  8
0
 62
     0
 66
     1
 10
0
 20
0
 30
0.0
 70
     1
 40
30.2971
 41
30.2971
  0
VERTEX
  8
0
 10
75.6875
 20
122.7
 30
0.0
 40
0.420793
 41
0.420793
  0
VERTEX
  8
0
 10
75.6863
 20
122.704
 30
0.0
 40
0.420793
 41
0.420793
  0
VERTEX
  8
0
 10
75.6856
 20
122.708
 30
0.0
 40
0.420793
 41
0.420793
  0
VERTEX
  8
0
 10
75.6856
 20
122.712
 30
0.0
 40
0.420793
 41
0.420793
  0
VERTEX
  8
0
 10
75.6861
 20
122.716
 30
0.0
 40
0.420793
 41
0.420793
  0
VERTEX
  8
0
 10
75.6872
 20
122.72
 30
0.0
 40
0.420793
 41
0.420793
  0
VERTEX
  8
0
 10
75.689
 20
122.723
 30
0.0
 40
0.420793
 41
0.420793
  0
VERTEX
  8
0
 10
75.6894
 20
122.724
 30
0.0
 40
0.420793
 41
0.420793
  0
VERTEX
  8
0
 10
75.6925
 20
122.728
 30
0.0
 40
0.420793
 41
0.420793
  0
VERTEX
  8
0
 10
75.6929
 20
122.728
 30
0.0
 40
0.420793
 41
0.420793
  0
VERTEX
  8
0
 10
75.6969
 20
122.731
 30
0.0
 40
0.420793
 41
0.420793
  0
VERTEX
  8
0
 10
75.6975
 20
122.732
 30
0.0
 40
0.420793
 41
0.420793
  0
VERTEX
  8
0
 10
75.7007
 20
122.733
 30
0.0
 40
0.420793
 41
0.420793
  0
VERTEX
  8
0
 10
75.7046
 20
122.735
 30
0.0
 40
0.420793
 41
0.420793
  0
VERTEX
  8
0
 10
75.7086
 20
122.735
 30
0.0
 40
0.420793
 41
0.420793
  0
VERTEX
  8
0
 10
75.7125
 20
122.735
 30
0.0
 40
0.420793
 41
0.420793
  0
VERTEX
  8
0
 10
75.7165
 20
122.735
 30
0.0
 40
0.420793
 41
0.420793
  0
VERTEX
  8
0
 10
75.7204
 20
122.733
 30
0.0
 40
0.420793
 41
0.420793
  0
VERTEX
  8
0
 10
75.7233
 20
122.732
 30
0.0
 40
0.420793
 41
0.420793
  0
VERTEX
  8
0
 10
75.7244
 20
122.731
 30
0.0
 40
0.420793
 41
0.420793
  0
VERTEX
  8
0
 10
75.7283
 20
122.728
 30
0.0
 40
0.420793
 41
0.420793
  0
VERTEX
  8
0
 10
75.7314
 20
122.724
 30
0.0
 40
0.420793
 41
0.420793
  0
VERTEX
  8
0
 10
75.7322
 20
122.722
 30
0.0
 40
0.420793
 41
0.420793
  0
VERTEX
  8
0
 10
75.7335
 20
122.72
 30
0.0
 40
0.420793
 41
0.420793
  0
VERTEX
  8
0
 10
75.7347
 20
122.716
 30
0.0
 40
0.420793
 41
0.420793
  0
VERTEX
  8
0
 10
75.7353
 20
122.712
 30
0.0
 40
0.420793
 41
0.420793
  0
VERTEX
  8
0
 10
75.7353
 20
122.708
 30
0.0
 40
0.420793
 41
0.420793
  0
VERTEX
  8
0
 10
75.7346
 20
122.704
 30
0.0
 40
0.420793
 41
0.420793
  0
VERTEX
  8
0
 10
75.7333
 20
122.7
 30
0.0
 40
0.420793
 41
0.420793
  0
VERTEX
  8
0
 10
75.7322
 20
122.698
 30
0.0
 40
0.420793
 41
0.420793
  0
VERTEX
  8
0
 10
75.7311
 20
122.696
 30
0.0
 40
0.420793
 41
0.420793
  0
VERTEX
  8
0
 10
75.7283
 20
122.693
 30
0.0
 40
0.420793
 41
0.420793
  0
VERTEX
  8
0
 10
75.7278
 20
122.693
 30
0.0
 40
0.420793
 41
0.420793
  0
VERTEX
  8
0
 10
75.7244
 20
122.69
 30
0.0
 40
0.420793
 41
0.420793
  0
VERTEX
  8
0
 10
75.7224
 20
122.688
 30
0.0
 40
0.420793
 41
0.420793
  0
VERTEX
  8
0
 10
75.7204
 20
122.688
 30
0.0
 40
0.420793
 41
0.420793
  0
VERTEX
  8
0
 10
75.7165
 20
122.686
 30
0.0
 40
0.420793
 41
0.420793
  0
VERTEX
  8
0
 10
75.7125
 20
122.686
 30
0.0
 40
0.420793
 41
0.420793
  0
VERTEX
  8
0
 10
75.7086
 20
122.686
 30
0.0
 40
0.420793
 41
0.420793
  0
VERTEX
  8
0
 10
75.7046
 20
122.686
 30
0.0
 40
0.420793
 41
0.420793
  0
VERTEX
  8
0
 10
75.7007
 20
122.688
 30
0.0
 40
0.420793
 41
0.420793
  0
VERTEX
  8
0
 10
75.6985
 20
122.688
 30
0.0
 40
0.420793
 41
0.420793
  0
VERTEX
  8
0
 10
75.6969
 20
122.689
 30
0.0
 40
0.420793
 41
0.420793
  0
VERTEX
  8
0
 10
75.6931
 20
122.693
 30
0.0
 40
0.420793
 41
0.420793
  0
VERTEX
  8
0
 10
75.6929
 20
122.693
 30
0.0
 40
0.420793
 41
0.420793
  0
VERTEX
  8
0
 10
75.6897
 20
122.696
 30
0.0
 40
0.420793
 41
0.420793
  0
VERTEX
  8
0
 10
75.689
 20
122.698
 30
0.0
 40
0.420793
 41
0.420793
  0
VERTEX
  8
0
 10
75.6875
 20
122.7
 30
0.0
 40
0.420793
 41
0.420793
  0
SEQEND
 8
0
  0
POLYLINE
  8
0
 62
     0
 66
     1
 10
0
 20
0
 30
0.0
 70
     1
 40
30.2971
 41
30.2971
  0
VERTEX
  8
0
 10
112.199
 20
136.188
 30
0.0
 40
0.420793
 41
0.420793
  0
VERTEX
  8
0
 10
112.198
 20
136.189
 30
0.0
 40
0.420793
 41
0.420793
  0
VERTEX
  8
0
 10
112.193
 20
136.192
 30
0.0
 40
0.420793
 41
0.420793
  0
VERTEX
  8
0
 10
112.193
 20
136.192
 30
0.0
 40
0.420793
 41
0.420793
  0
VERTEX
  8
0
 10
112.19
 20
136.196
 30
0.0
 40
0.420793
 41
0.420793
  0
VERTEX
  8
0
 10
112.19
 20
136.197
 30
0.0
 40
0.420793
 41
0.420793
  0
VERTEX
  8
0
 10
112.188
 20
136.2
 30
0.0
 40
0.420793
 41
0.420793
  0
VERTEX
  8
0
 10
112.187
 20
136.204
 30
0.0
 40
0.420793
 41
0.420793
  0
VERTEX
  8
0
 10
112.185
 20
136.208
 30
0.0
 40
0.420793
 41
0.420793
  0
VERTEX
  8
0
 10
112.185
 20
136.212
 30
0.0
 40
0.420793
 41
0.420793
  0
VERTEX
  8
0
 10
112.187
 20
136.216
 30
0.0
 40
0.420793
 41
0.420793
  0
VERTEX
  8
0
 10
112.188
 20
136.22
 30
0.0
 40
0.420793
 41
0.420793
  0
VERTEX
  8
0
 10
112.19
 20
136.224
 30
0.0
 40
0.420793
 41
0.420793
  0
VERTEX
  8
0
 10
112.192
 20
136.228
 30
0.0
 40
0.420793
 41
0.420793
  0
VERTEX
  8
0
 10
112.193
 20
136.229
 30
0.0
 40
0.420793
 41
0.420793
  0
VERTEX
  8
0
 10
112.198
 20
136.232
 30
0.0
 40
0.420793
 41
0.420793
  0
VERTEX
  8
0
 10
112.198
 20
136.232
 30
0.0
 40
0.420793
 41
0.420793
  0
VERTEX
  8
0
 10
112.201
 20
136.234
 30
0.0
 40
0.420793
 41
0.420793
  0
VERTEX
  8
0
 10
112.205
 20
136.235
 30
0.0
 40
0.420793
 41
0.420793
  0
VERTEX
  8
0
 10
112.209
 20
136.235
 30
0.0
 40
0.420793
 41
0.420793
  0
VERTEX
  8
0
 10
112.213
 20
136.235
 30
0.0
 40
0.420793
 41
0.420793
  0
VERTEX
  8
0
 10
112.217
 20
136.235
 30
0.0
 40
0.420793
 41
0.420793
  0
VERTEX
  8
0
 10
112.221
 20
136.233
 30
0.0
 40
0.420793
 41
0.420793
  0
VERTEX
  8
0
 10
112.223
 20
136.232
 30
0.0
 40
0.420793
 41
0.420793
  0
VERTEX
  8
0
 10
112.224
 20
136.231
 30
0.0
 40
0.420793
 41
0.420793
  0
VERTEX
  8
0
 10
112.229
 20
136.228
 30
0.0
 40
0.420793
 41
0.420793
  0
VERTEX
  8
0
 10
112.229
 20
136.227
 30
0.0
 40
0.420793
 41
0.420793
  0
VERTEX
  8
0
 10
112.231
 20
136.224
 30
0.0
 40
0.420793
 41
0.420793
  0
VERTEX
  8
0
 10
112.233
 20
136.222
 30
0.0
 40
0.420793
 41
0.420793
  0
VERTEX
  8
0
 10
112.233
 20
136.22
 30
0.0
 40
0.420793
 41
0.420793
  0
VERTEX
  8
0
 10
112.234
 20
136.216
 30
0.0
 40
0.420793
 41
0.420793
  0
VERTEX
  8
0
 10
112.235
 20
136.212
 30
0.0
 40
0.420793
 41
0.420793
  0
VERTEX
  8
0
 10
112.235
 20
136.208
 30
0.0
 40
0.420793
 41
0.420793
  0
VERTEX
  8
0
 10
112.234
 20
136.204
 30
0.0
 40
0.420793
 41
0.420793
  0
VERTEX
  8
0
 10
112.233
 20
136.2
 30
0.0
 40
0.420793
 41
0.420793
  0
VERTEX
  8
0
 10
112.233
 20
136.199
 30
0.0
 40
0.420793
 41
0.420793
  0
VERTEX
  8
0
 10
112.231
 20
136.196
 30
0.0
 40
0.420793
 41
0.420793
  0
VERTEX
  8
0
 10
112.229
 20
136.193
 30
0.0
 40
0.420793
 41
0.420793
  0
VERTEX
  8
0
 10
112.228
 20
136.192
 30
0.0
 40
0.420793
 41
0.420793
  0
VERTEX
  8
0
 10
112.224
 20
136.19
 30
0.0
 40
0.420793
 41
0.420793
  0
VERTEX
  8
0
 10
112.222
 20
136.188
 30
0.0
 40
0.420793
 41
0.420793
  0
VERTEX
  8
0
 10
112.221
 20
136.188
 30
0.0
 40
0.420793
 41
0.420793
  0
VERTEX
  8
0
 10
112.217
 20
136.186
 30
0.0
 40
0.420793
 41
0.420793
  0
VERTEX
  8
0
 10
112.213
 20
136.186
 30
0.0
 40
0.420793
 41
0.420793
  0
VERTEX
  8
0
 10
112.209
 20
136.185
 30
0.0
 40
0.420793
 41
0.420793
  0
VERTEX
  8
0
 10
112.205
 20
136.186
 30
0.0
 40
0.420793
 41
0.420793
  0
VERTEX
  8
0
 10
112.201
 20
136.187
 30
0.0
 40
0.420793
 41
0.420793
  0
VERTEX
  8
0
 10
112.199
 20
136.188
 30
0.0
 40
0.420793
 41
0.420793
  0
SEQEND
 8
0
  0
ENDSEC
  0
EOF
